<svg width="105" height="53" viewBox="0 0 105 53" fill="none" xmlns="http://www.w3.org/2000/svg">
<path d="M10.5799 36.3012C9.40439 37.0066 8.08779 37.2417 5.1254 37.2417H3.85581V43.3075H0V24.3577H5.1254C7.8997 24.3577 9.26333 24.5928 10.4389 25.2981C12.2257 26.3796 13.2602 28.3545 13.2602 30.7526C13.3072 33.1508 12.2727 35.2668 10.5799 36.3012ZM5.17241 28.0254H3.85581V33.5269H4.98433C8.46395 33.5269 9.40439 32.5865 9.40439 30.7997C9.40439 28.6367 8.1348 28.0254 5.17241 28.0254Z" fill="white"/>
<path d="M18.2442 34.6553V43.3074H14.4824V27.7431H17.915V29.2478C18.9025 27.8372 19.7019 27.3669 21.3006 27.3669H21.5828V30.9876C19.3257 31.0347 18.2442 32.2102 18.2442 34.6553Z" fill="white"/>
<path d="M30.0474 43.6839C25.4862 43.6839 21.7715 40.0162 21.7715 35.5491C21.7715 31.082 25.4862 27.4143 30.0003 27.4143C34.7025 27.4143 38.3232 31.035 38.3232 35.6902C38.3232 40.0162 34.5615 43.6839 30.0474 43.6839ZM30.0474 30.7999C27.6022 30.7999 25.5332 32.9159 25.5332 35.4551C25.5332 38.1353 27.5082 40.2513 30.0474 40.2513C32.5395 40.2513 34.5615 38.1353 34.5615 35.5491C34.5615 32.9159 32.5395 30.7999 30.0474 30.7999Z" fill="white"/>
<path d="M48.3861 43.6836C46.4582 43.6836 45.0005 43.1193 43.5899 41.8497V47.5864H39.8281V27.7431H43.2607V29.577C44.4833 28.1663 46.2701 27.3669 48.3861 27.3669C52.9002 27.3669 56.1447 30.7525 56.1447 35.4547C56.1918 40.2039 52.9002 43.6836 48.3861 43.6836ZM47.9629 30.7995C45.3767 30.7995 43.4018 32.8215 43.4018 35.5017C43.4018 38.229 45.3767 40.251 48.01 40.251C50.5021 40.251 52.43 38.182 52.43 35.5488C52.43 32.8685 50.5021 30.7995 47.9629 30.7995Z" fill="white"/>
<path d="M73.5893 37.1948H61.5517C62.0219 39.0756 63.6206 40.2512 65.8306 40.2512C67.3824 40.2512 68.3228 39.828 69.2632 38.6995H73.3542C72.3197 41.897 69.0752 43.6838 65.9247 43.6838C61.1755 43.6838 57.5078 40.1572 57.5078 35.596C57.5078 31.0349 61.1284 27.3672 65.7366 27.3672C70.3918 27.3672 73.7774 30.8938 73.7774 35.7371C73.7303 36.3014 73.6833 36.6305 73.5893 37.1948ZM65.7366 30.7998C63.5266 30.7998 61.9749 31.8813 61.4106 33.9032H70.0626C69.5924 31.8813 68.0407 30.7998 65.7366 30.7998Z" fill="white"/>
<path d="M78.8555 22.5237H75.0938V43.3074H78.8555V22.5237Z" fill="white"/>
<path d="M85.0625 22.5237H81.3008V43.3074H85.0625V22.5237Z" fill="white"/>
<path d="M105 12.884C105 11.1442 103.589 9.78057 101.896 9.78057H92.9153C91.1755 9.78057 89.8118 11.1912 89.8118 12.884V3.10344C89.8118 1.36363 88.4012 0 86.7084 0H86.0501V11.0972C86.0501 12.837 87.4608 14.2006 89.1535 14.2006H77.21V14.8589C77.21 16.5987 78.6206 17.9624 80.3134 17.9624H86.6614C88.4012 17.9624 89.7648 16.5517 89.7648 14.8589V24.5455H90.4231C92.1629 24.5455 93.5266 23.1348 93.5266 21.442V16.6928C93.5266 14.953 92.1159 13.5893 90.4231 13.5893H105V12.884Z" fill="#00AD8D"/>
<path d="M1.64577 47.6331V48.0092H0.705327V48.5735H1.41066V48.9026H0.705327V49.8901H0.235107V47.6331H1.64577Z" fill="white"/>
<path d="M2.53888 49.7491C2.35079 49.6551 2.20971 49.514 2.11567 49.3259C2.02163 49.1378 1.97461 48.9497 1.97461 48.7146C1.97461 48.4795 2.02163 48.2914 2.11567 48.1033C2.20971 47.9152 2.35079 47.7742 2.53888 47.6801C2.72697 47.5861 2.91505 47.5391 3.10313 47.5391C3.29122 47.5391 3.52634 47.5861 3.6674 47.6801C3.85549 47.7742 3.99655 47.9152 4.0906 48.1033C4.18464 48.2914 4.23166 48.4795 4.23166 48.7146C4.23166 48.9497 4.18464 49.1378 4.0906 49.3259C3.99655 49.514 3.85549 49.6551 3.6674 49.7491C3.47931 49.8431 3.29122 49.8902 3.10313 49.8902C2.91505 49.8902 2.72697 49.8431 2.53888 49.7491ZM3.47932 49.4199C3.57336 49.3729 3.66741 49.2789 3.71443 49.1378C3.76145 49.0438 3.80846 48.9027 3.80846 48.7616C3.80846 48.6206 3.76145 48.4795 3.71443 48.3855C3.66741 48.2914 3.57336 48.1974 3.47932 48.1503C3.38527 48.1033 3.2442 48.0563 3.10313 48.0563C2.96207 48.0563 2.86803 48.1033 2.72696 48.1503C2.63292 48.1974 2.53888 48.2914 2.49185 48.3855C2.44483 48.4795 2.3978 48.6206 2.3978 48.7616C2.3978 48.9027 2.44483 49.0438 2.49185 49.1378C2.53888 49.2319 2.63292 49.3259 2.72696 49.4199C2.82101 49.467 2.96207 49.514 3.10313 49.514C3.2442 49.514 3.38527 49.467 3.47932 49.4199Z" fill="white"/>
<path d="M5.8777 49.8901L5.36047 48.9967H5.17237V49.8901H4.70215V47.6331H5.54855C5.73664 47.6331 5.8777 47.6801 5.97175 47.7271C6.11281 47.7741 6.20686 47.8682 6.25388 47.9622C6.3009 48.0563 6.34792 48.1973 6.34792 48.2914C6.34792 48.4324 6.3009 48.5735 6.20686 48.6675C6.11281 48.8086 5.97175 48.8556 5.83069 48.9026L6.34792 49.7961H5.8777V49.8901ZM5.17237 48.6675H5.54855C5.68962 48.6675 5.78366 48.6205 5.83069 48.5735C5.87771 48.5265 5.92472 48.4324 5.92472 48.3384C5.92472 48.2443 5.87771 48.1503 5.83069 48.1033C5.78366 48.0563 5.68962 48.0092 5.54855 48.0092H5.17237V48.6675Z" fill="white"/>
<path d="M9.8748 47.6331L9.26352 49.8901H8.74628L8.32308 48.2914L7.89989 49.8901H7.33562L6.77136 47.6331H7.24158L7.61775 49.3729L8.08797 47.6331H8.55819L9.02841 49.3729L9.40458 47.6331H9.8748Z" fill="white"/>
<path d="M11.661 49.4198H10.7675L10.6265 49.843H10.1562L10.9556 47.5859H11.4729L12.2722 49.843H11.802L11.661 49.4198ZM11.5669 49.0906L11.2378 48.1502L10.9086 49.0906H11.5669Z" fill="white"/>
<path d="M13.8718 49.8903L13.3546 48.9969H13.1665V49.8903H12.6963V47.6333H13.5427C13.7308 47.6333 13.8718 47.6803 13.9659 47.7273C14.107 47.7744 14.201 47.8684 14.248 47.9625C14.295 48.0565 14.3421 48.1976 14.3421 48.2916C14.3421 48.4327 14.295 48.5737 14.201 48.6678C14.107 48.8088 13.9659 48.8559 13.8248 48.9029L14.3421 49.7963H13.8718V49.8903ZM13.1665 48.6678H13.5427C13.6838 48.6678 13.7778 48.6208 13.8248 48.5737C13.8718 48.5267 13.9189 48.4327 13.9189 48.3386C13.9189 48.2446 13.8718 48.1505 13.8248 48.1035C13.7778 48.0565 13.6838 48.0095 13.5427 48.0095H13.1665V48.6678Z" fill="white"/>
<path d="M16.3167 47.7741C16.5048 47.8682 16.6459 48.0092 16.7399 48.1503C16.834 48.3384 16.881 48.5265 16.881 48.7616C16.881 48.9967 16.834 49.1848 16.7399 49.3729C16.6459 49.561 16.5048 49.655 16.3167 49.749C16.1286 49.8431 15.9406 49.8901 15.7054 49.8901H14.9061V47.6331H15.7054C15.9406 47.6331 16.1286 47.6801 16.3167 47.7741ZM16.2227 49.2788C16.3637 49.1378 16.4108 48.9497 16.4108 48.7146C16.4108 48.4794 16.3637 48.2914 16.2227 48.1503C16.0816 48.0092 15.8935 47.9622 15.6584 47.9622H15.3293V49.4199H15.6584C15.9405 49.4669 16.0816 49.4199 16.2227 49.2788Z" fill="white"/>
<path d="M18.7152 48.5264H17.3516V48.9025H18.7152V48.5264Z" fill="white"/>
<path d="M20.7368 47.6333V48.0095H19.7964V48.5737H20.5017V48.9029H19.7964V49.8903H19.3262V47.6333H20.7368Z" fill="white"/>
<path d="M21.6297 49.7491C21.4416 49.6551 21.3006 49.514 21.2065 49.3259C21.1125 49.1378 21.0654 48.9497 21.0654 48.7146C21.0654 48.4795 21.1125 48.2914 21.2065 48.1033C21.3006 47.9152 21.4416 47.7742 21.6297 47.6801C21.8178 47.5861 22.0059 47.5391 22.194 47.5391C22.4291 47.5391 22.6172 47.5861 22.7582 47.6801C22.9463 47.7742 23.0874 47.9152 23.1814 48.1033C23.2755 48.2914 23.3225 48.4795 23.3225 48.7146C23.3225 48.9497 23.2755 49.1378 23.1814 49.3259C23.0874 49.514 22.9463 49.6551 22.7582 49.7491C22.5701 49.8431 22.3821 49.8902 22.194 49.8902C22.0059 49.8902 21.8178 49.8431 21.6297 49.7491ZM22.5701 49.4199C22.6642 49.3729 22.7582 49.2789 22.8052 49.1378C22.8523 49.0438 22.8993 48.9027 22.8993 48.7616C22.8993 48.6206 22.8523 48.4795 22.8052 48.3855C22.7582 48.2914 22.6642 48.1974 22.5701 48.1503C22.4761 48.1033 22.335 48.0563 22.194 48.0563C22.0529 48.0563 21.9589 48.1033 21.8178 48.1503C21.7238 48.1974 21.6297 48.2914 21.5827 48.3855C21.5357 48.4795 21.4886 48.6206 21.4886 48.7616C21.4886 48.9027 21.5357 49.0438 21.5827 49.1378C21.6297 49.2319 21.7238 49.3259 21.8178 49.4199C21.9118 49.467 22.0529 49.514 22.194 49.514C22.335 49.514 22.4761 49.467 22.5701 49.4199Z" fill="white"/>
<path d="M23.8403 48.1502C23.9343 47.9621 24.0754 47.821 24.2635 47.727C24.4516 47.633 24.6396 47.5859 24.8277 47.5859C25.0628 47.5859 25.298 47.633 25.486 47.774C25.6741 47.9151 25.8152 48.1032 25.8622 48.2913H25.345C25.298 48.1972 25.2039 48.1032 25.1099 48.0562C25.0158 48.0091 24.9218 47.9621 24.7807 47.9621C24.6397 47.9621 24.5456 48.0091 24.4516 48.0562C24.3575 48.1032 24.2635 48.1972 24.2164 48.2913C24.1694 48.3853 24.1224 48.5264 24.1224 48.6674C24.1224 48.8085 24.1694 48.9496 24.2164 49.0436C24.2635 49.1377 24.3575 49.2317 24.4516 49.3257C24.5456 49.3728 24.6867 49.4198 24.7807 49.4198C24.9218 49.4198 25.0158 49.3728 25.1099 49.3257C25.2039 49.2787 25.298 49.1847 25.345 49.0906H25.8622C25.7682 49.3257 25.6741 49.5138 25.486 49.6079C25.298 49.7489 25.0628 49.796 24.8277 49.796C24.5926 49.796 24.4046 49.7489 24.2635 49.6549C24.0754 49.5609 23.9343 49.4198 23.8403 49.2317C23.7462 49.0436 23.6992 48.8555 23.6992 48.6204C23.6992 48.5264 23.7462 48.3383 23.8403 48.1502Z" fill="white"/>
<path d="M26.8494 47.6331V48.9967C26.8494 49.1378 26.8964 49.2788 26.9904 49.3258C27.0845 49.4199 27.1785 49.4669 27.3196 49.4669C27.4607 49.4669 27.5547 49.4199 27.6487 49.3258C27.7428 49.2318 27.7898 49.1378 27.7898 48.9967V47.6331H28.26V48.9967C28.26 49.1848 28.213 49.3258 28.1189 49.4669C28.0249 49.608 27.9309 49.702 27.7898 49.749C27.6487 49.7961 27.5077 49.8431 27.3196 49.8431C27.1315 49.8431 26.9904 49.7961 26.8494 49.749C26.7083 49.702 26.6143 49.561 26.5202 49.4669C26.4262 49.3258 26.3792 49.1848 26.3792 48.9967V47.6331H26.8494Z" fill="white"/>
<path d="M29.1066 49.796C28.9656 49.7489 28.8715 49.6549 28.8245 49.5609C28.7304 49.4668 28.7305 49.3257 28.7305 49.1847H29.2007C29.2007 49.2787 29.2477 49.3728 29.2947 49.4198C29.3417 49.4668 29.4358 49.5138 29.5298 49.5138C29.6239 49.5138 29.7179 49.4668 29.7649 49.4198C29.812 49.3728 29.859 49.3257 29.859 49.2317C29.859 49.1847 29.859 49.0906 29.812 49.0906C29.7649 49.0436 29.7179 48.9966 29.6709 48.9966C29.6239 48.9496 29.5298 48.9496 29.4358 48.9026C29.2947 48.8555 29.1536 48.8085 29.0596 48.7615C28.9656 48.7145 28.8715 48.6674 28.8245 48.5734C28.7775 48.4794 28.7305 48.3853 28.7305 48.2442C28.7305 48.1032 28.7775 48.0091 28.8245 47.9151C28.8715 47.821 28.9656 47.727 29.1066 47.68C29.2477 47.633 29.3417 47.5859 29.5298 47.5859C29.7649 47.5859 29.953 47.633 30.0941 47.774C30.2352 47.8681 30.3292 48.0562 30.3292 48.2442H29.859C29.859 48.1502 29.812 48.1032 29.7649 48.0562C29.7179 48.0091 29.6239 47.9621 29.5298 47.9621C29.4358 47.9621 29.3888 47.9621 29.3417 48.0091C29.2947 48.0562 29.2477 48.1032 29.2477 48.1972C29.2477 48.2442 29.2477 48.2913 29.2947 48.3383C29.3417 48.3853 29.3888 48.4323 29.4358 48.4323C29.4828 48.4794 29.5769 48.4794 29.6709 48.5264C29.812 48.5734 29.953 48.6204 30.0471 48.6674C30.1411 48.7145 30.2352 48.7615 30.2822 48.8555C30.3292 48.9496 30.3762 49.0436 30.3762 49.1847C30.3762 49.3257 30.3292 49.4198 30.2822 49.5138C30.2352 49.6079 30.1411 49.7019 30 49.7489C29.859 49.796 29.7179 49.843 29.5769 49.843C29.3888 49.89 29.2477 49.843 29.1066 49.796Z" fill="white"/>
<path d="M31.2699 48.0095V48.5737H32.0692V48.9029H31.2699V49.5142H32.1633V49.8903H30.8467V47.6333H32.1633V48.0095H31.2699Z" fill="white"/>
<path d="M34.0913 47.7744C34.2794 47.8684 34.4205 48.0095 34.5145 48.1505C34.6086 48.3386 34.6556 48.5267 34.6556 48.7618C34.6556 48.9969 34.6086 49.185 34.5145 49.3731C34.4205 49.5612 34.2794 49.6552 34.0913 49.7493C33.9032 49.8433 33.7152 49.8903 33.48 49.8903H32.6807V47.6333H33.48C33.7152 47.6333 33.9032 47.6803 34.0913 47.7744ZM33.9973 49.2791C34.1383 49.138 34.1854 48.9499 34.1854 48.7148C34.1854 48.4797 34.1383 48.2916 33.9973 48.1505C33.8562 48.0095 33.6681 47.9625 33.433 47.9625H33.1039V49.4201H33.433C33.6681 49.4672 33.8562 49.4201 33.9973 49.2791Z" fill="white"/>
<path d="M1.64577 50.8774C1.83385 50.9714 1.97493 51.1125 2.06897 51.2536C2.16302 51.4417 2.21003 51.6297 2.21003 51.8649C2.21003 52.1 2.16302 52.2881 2.06897 52.4761C1.97493 52.6642 1.83385 52.7583 1.64577 52.8523C1.45768 52.9464 1.2696 52.9934 1.03449 52.9934H0.235107V50.7363H1.03449C1.2696 50.7363 1.45768 50.7834 1.64577 50.8774ZM1.55173 52.3821C1.6928 52.241 1.73982 52.0529 1.73982 51.8178C1.73982 51.5827 1.6928 51.3946 1.55173 51.2536C1.41066 51.1125 1.22257 51.0655 0.987461 51.0655H0.658316V52.5232H0.987461C1.26959 52.5702 1.41066 52.5232 1.55173 52.3821Z" fill="white"/>
<path d="M3.10386 51.1125V51.6297H3.85621V52.0059H3.10386V52.6172H3.95026V52.9464H2.68066V50.7363H3.95026V51.1125H3.10386Z" fill="white"/>
<path d="M4.84298 52.8995C4.70192 52.8525 4.60787 52.7584 4.56085 52.6644C4.4668 52.5703 4.4668 52.4293 4.4668 52.2882H4.93702C4.93702 52.3822 4.98404 52.4293 5.03107 52.5233C5.07809 52.5703 5.17213 52.6173 5.26618 52.6173C5.36022 52.6173 5.45426 52.5703 5.50129 52.5233C5.54831 52.4763 5.59534 52.4293 5.59534 52.3352C5.59534 52.2882 5.59533 52.1942 5.54831 52.1942C5.50129 52.1471 5.45426 52.1001 5.40724 52.1001C5.36021 52.0531 5.26617 52.0531 5.17213 52.0061C5.03106 51.959 4.89 51.912 4.79596 51.865C4.70191 51.818 4.60787 51.771 4.56085 51.6769C4.51382 51.5829 4.4668 51.4888 4.4668 51.3478C4.4668 51.2067 4.51382 51.1126 4.56085 51.0186C4.60787 50.9246 4.70192 50.8305 4.84298 50.7835C4.98405 50.7365 5.07809 50.6895 5.26618 50.6895C5.50129 50.6895 5.68938 50.7365 5.83044 50.8775C5.97151 50.9716 6.06555 51.1597 6.06555 51.3478H5.59534C5.59534 51.2537 5.54831 51.2067 5.50129 51.1597C5.45426 51.1127 5.36022 51.0656 5.26618 51.0656C5.17213 51.0656 5.12511 51.0656 5.07809 51.1126C5.03107 51.1597 4.98404 51.2067 4.98404 51.3007C4.98404 51.3478 4.98404 51.3948 5.03107 51.4418C5.07809 51.4888 5.1251 51.5358 5.17213 51.5358C5.21915 51.5358 5.31319 51.5829 5.40724 51.6299C5.5483 51.6769 5.68938 51.7239 5.78342 51.771C5.87746 51.818 5.97151 51.865 6.01853 51.959C6.06555 52.0531 6.11257 52.1471 6.11257 52.2882C6.11257 52.4293 6.06555 52.5233 6.01853 52.6173C5.97151 52.7114 5.87746 52.8054 5.7364 52.8525C5.59533 52.8995 5.45427 52.9465 5.3132 52.9465C5.12511 52.9935 4.98405 52.9465 4.84298 52.8995Z" fill="white"/>
<path d="M7.05329 50.7363H6.58307V52.9934H7.05329V50.7363Z" fill="white"/>
<path d="M9.16912 51.3947C9.12209 51.3007 9.02805 51.2066 8.93401 51.1596C8.83996 51.1126 8.74593 51.0656 8.60486 51.0656C8.4638 51.0656 8.36975 51.1126 8.2757 51.1596C8.18166 51.2066 8.08761 51.3007 8.04059 51.3947C7.99357 51.4888 7.94656 51.6298 7.94656 51.7709C7.94656 51.912 7.99357 52.053 8.04059 52.1471C8.08761 52.2411 8.18166 52.3352 8.2757 52.3822C8.36975 52.4292 8.51082 52.4762 8.65189 52.4762C8.83997 52.4762 8.98104 52.4292 9.07508 52.3352C9.16913 52.2411 9.26317 52.1001 9.31019 51.959H8.55784V51.6298H9.78041V52.006C9.73339 52.1471 9.68637 52.2882 9.59233 52.4292C9.49828 52.5703 9.35721 52.6643 9.21614 52.7584C9.07508 52.8524 8.88699 52.8994 8.6989 52.8994C8.46379 52.8994 8.27571 52.8524 8.13464 52.7584C7.94655 52.6643 7.80549 52.5233 7.71145 52.3352C7.6174 52.1471 7.57037 51.959 7.57037 51.7239C7.57037 51.4888 7.6174 51.3007 7.71145 51.1126C7.80549 50.9245 7.94655 50.7835 8.13464 50.6894C8.32273 50.5954 8.51081 50.5483 8.6989 50.5483C8.93401 50.5483 9.16913 50.5954 9.35722 50.7364C9.5453 50.8775 9.68636 51.0186 9.73339 51.2537H9.16912V51.3947Z" fill="white"/>
<path d="M12.085 52.9464H11.6618L10.6273 51.4417V52.9464H10.2041V50.7363H10.6273L11.6618 52.2881V50.7363H12.085V52.9464Z" fill="white"/>
<path d="M13.9184 52.8995C13.7774 52.8525 13.6833 52.7584 13.6363 52.6644C13.5422 52.5703 13.5422 52.4293 13.5422 52.2882H14.0124C14.0124 52.3822 14.0595 52.4293 14.1065 52.5233C14.1535 52.5703 14.2476 52.6173 14.3416 52.6173C14.4356 52.6173 14.5297 52.5703 14.5767 52.5233C14.6237 52.4763 14.6708 52.4293 14.6708 52.3352C14.6708 52.2882 14.6708 52.1942 14.6237 52.1942C14.5767 52.1471 14.5297 52.1001 14.4827 52.1001C14.4356 52.0531 14.3416 52.0531 14.2476 52.0061C14.1065 51.959 13.9654 51.912 13.8714 51.865C13.7773 51.818 13.6833 51.771 13.6363 51.6769C13.5892 51.5829 13.5422 51.4888 13.5422 51.3478C13.5422 51.2067 13.5892 51.1126 13.6363 51.0186C13.6833 50.9246 13.7774 50.8305 13.9184 50.7835C14.0595 50.7365 14.1535 50.6895 14.3416 50.6895C14.5767 50.6895 14.7648 50.7365 14.9059 50.8775C15.0469 50.9716 15.141 51.1597 15.141 51.3478H14.6708C14.6708 51.2537 14.6237 51.2067 14.5767 51.1597C14.5297 51.1127 14.4356 51.0656 14.3416 51.0656C14.2476 51.0656 14.2006 51.0656 14.1535 51.1126C14.1065 51.1597 14.0595 51.2067 14.0595 51.3007C14.0595 51.3478 14.0595 51.3948 14.1065 51.4418C14.1535 51.4888 14.2005 51.5358 14.2476 51.5358C14.2946 51.5829 14.3886 51.5829 14.4827 51.6299C14.6237 51.6769 14.7648 51.7239 14.8589 51.771C14.9529 51.818 15.0469 51.865 15.094 51.959C15.141 52.0531 15.188 52.1471 15.188 52.2882C15.188 52.4293 15.141 52.5233 15.094 52.6173C15.0469 52.7114 14.9529 52.8054 14.8118 52.8525C14.6708 52.8995 14.5297 52.9465 14.3886 52.9465C14.2006 52.9935 14.0595 52.9465 13.9184 52.8995Z" fill="white"/>
<path d="M16.1287 52.8526C15.9406 52.7586 15.7996 52.6175 15.7055 52.4294C15.6115 52.2413 15.5645 52.0532 15.5645 51.8181C15.5645 51.583 15.6115 51.3949 15.7055 51.2068C15.7996 51.0188 15.9406 50.8777 16.1287 50.7836C16.3168 50.6896 16.5049 50.6426 16.693 50.6426C16.9281 50.6426 17.1162 50.6896 17.2572 50.7836C17.4453 50.8777 17.5864 51.0188 17.6804 51.2068C17.7745 51.3949 17.8215 51.583 17.8215 51.8181C17.8215 52.0532 17.7745 52.2413 17.6804 52.4294C17.5864 52.6175 17.4453 52.7586 17.2572 52.8526C17.0691 52.9467 16.8811 52.9937 16.693 52.9937C16.5049 52.9937 16.2698 52.9467 16.1287 52.8526ZM17.0221 52.4764C17.1162 52.4294 17.2102 52.3354 17.2572 52.1943C17.3043 52.1003 17.3513 51.9592 17.3513 51.8181C17.3513 51.6771 17.3043 51.536 17.2572 51.4419C17.2102 51.3479 17.1162 51.2539 17.0221 51.2068C16.9281 51.1598 16.787 51.1128 16.646 51.1128C16.5049 51.1128 16.4108 51.1598 16.2698 51.2068C16.1757 51.2539 16.0817 51.3479 16.0347 51.4419C15.9877 51.536 15.9406 51.6771 15.9406 51.8181C15.9406 51.9592 15.9877 52.1003 16.0347 52.1943C16.0817 52.2883 16.1757 52.3824 16.2698 52.4764C16.3638 52.5235 16.5049 52.5705 16.646 52.5705C16.834 52.5705 16.9281 52.5705 17.0221 52.4764Z" fill="white"/>
<path d="M18.7622 52.6172H19.4675V52.9464H18.292V50.7363H18.7622V52.6172Z" fill="white"/>
<path d="M20.314 50.7363V52.1C20.314 52.241 20.361 52.3821 20.455 52.4291C20.5491 52.5232 20.6431 52.5702 20.7842 52.5702C20.9253 52.5702 21.0193 52.5232 21.1133 52.4291C21.2074 52.3351 21.2544 52.241 21.2544 52.1V50.7363H21.7246V52.1C21.7246 52.2881 21.6776 52.4291 21.5836 52.5702C21.4895 52.7113 21.3955 52.8053 21.2544 52.8523C21.1133 52.8993 20.9723 52.9464 20.7842 52.9464C20.5961 52.9464 20.455 52.8993 20.314 52.8523C20.1729 52.8053 20.0789 52.6642 19.9848 52.5702C19.8908 52.4291 19.8438 52.2881 19.8438 52.1V50.7363H20.314Z" fill="white"/>
<path d="M23.7932 50.7363V51.1125H23.1819V52.9464H22.7117V51.1125H22.1475V50.7363H23.7932Z" fill="white"/>
<path d="M24.686 50.7363H24.2158V52.9934H24.686V50.7363Z" fill="white"/>
<path d="M25.7215 52.8526C25.5334 52.7586 25.3923 52.6175 25.2983 52.4294C25.2042 52.2413 25.1572 52.0532 25.1572 51.8181C25.1572 51.583 25.2042 51.3949 25.2983 51.2068C25.3923 51.0188 25.5334 50.8777 25.7215 50.7836C25.9096 50.6896 26.0977 50.6426 26.2858 50.6426C26.4739 50.6426 26.709 50.6896 26.85 50.7836C27.0381 50.8777 27.1792 51.0188 27.2732 51.2068C27.3673 51.3949 27.4143 51.583 27.4143 51.8181C27.4143 52.0532 27.3673 52.2413 27.2732 52.4294C27.1792 52.6175 27.0381 52.7586 26.85 52.8526C26.6619 52.9467 26.4739 52.9937 26.2858 52.9937C26.0977 52.9937 25.9096 52.9467 25.7215 52.8526ZM26.6619 52.4764C26.756 52.4294 26.85 52.3354 26.897 52.1943C26.9441 52.1003 26.9911 51.9592 26.9911 51.8181C26.9911 51.6771 26.9441 51.536 26.897 51.4419C26.85 51.3479 26.756 51.2539 26.6619 51.2068C26.5679 51.1598 26.4268 51.1128 26.2858 51.1128C26.1447 51.1128 26.0507 51.1598 25.9096 51.2068C25.8156 51.2539 25.7215 51.3479 25.6745 51.4419C25.6275 51.536 25.5804 51.6771 25.5804 51.8181C25.5804 51.9592 25.6275 52.1003 25.6745 52.1943C25.7215 52.2883 25.8156 52.3824 25.9096 52.4764C26.0036 52.5235 26.1447 52.5705 26.2858 52.5705C26.4268 52.5705 26.5679 52.5705 26.6619 52.4764Z" fill="white"/>
<path d="M29.8118 52.9464H29.3416L28.3541 51.4417V52.9464H27.8839V50.7363H28.3541L29.3416 52.2881V50.7363H29.8118V52.9464Z" fill="white"/>
<path d="M30.7521 52.8995C30.6111 52.8525 30.517 52.7584 30.47 52.6644C30.376 52.5703 30.376 52.4293 30.376 52.2882H30.8462C30.8462 52.3822 30.8932 52.4293 30.9402 52.5233C30.9872 52.5703 31.0813 52.6173 31.1753 52.6173C31.2694 52.6173 31.3634 52.5703 31.4104 52.5233C31.4575 52.4763 31.5045 52.4293 31.5045 52.3352C31.5045 52.2882 31.5045 52.1942 31.4575 52.1942C31.4105 52.1471 31.3634 52.1001 31.3164 52.1001C31.2694 52.0531 31.1753 52.0531 31.0813 52.0061C30.9402 51.959 30.7992 51.912 30.7051 51.865C30.6111 51.818 30.517 51.771 30.47 51.6769C30.423 51.5829 30.376 51.4888 30.376 51.3478C30.376 51.2067 30.423 51.1126 30.47 51.0186C30.517 50.9246 30.6111 50.8305 30.7521 50.7835C30.8932 50.7365 30.9872 50.6895 31.1753 50.6895C31.4104 50.6895 31.5985 50.7365 31.7396 50.8775C31.8807 50.9716 31.9747 51.1597 31.9747 51.3478H31.5045C31.5045 51.2537 31.4575 51.2067 31.4104 51.1597C31.3634 51.1127 31.2694 51.0656 31.1753 51.0656C31.0813 51.0656 31.0343 51.0656 30.9873 51.1126C30.9402 51.1597 30.8932 51.2067 30.8932 51.3007C30.8932 51.3478 30.8932 51.3948 30.9402 51.4418C30.9872 51.4888 31.0343 51.5358 31.0813 51.5358C31.1283 51.5829 31.2224 51.5829 31.3164 51.6299C31.4575 51.6769 31.5985 51.7239 31.6926 51.771C31.7866 51.818 31.8807 51.865 31.9277 51.959C31.9747 52.0531 32.0217 52.1471 32.0217 52.2882C32.0217 52.4293 31.9747 52.5233 31.9277 52.6173C31.8807 52.7114 31.7866 52.8054 31.6455 52.8525C31.5045 52.8995 31.3634 52.9465 31.2224 52.9465C30.9873 52.9935 30.8462 52.9465 30.7521 52.8995Z" fill="white"/>
</svg>
