<svg width="28" height="27" viewBox="0 0 28 27" fill="none" xmlns="http://www.w3.org/2000/svg">
<path d="M4.88266 26.7126C4.13151 26.7126 3.3674 26.7126 2.61625 26.7126C2.51264 26.7126 2.42199 26.7126 2.31838 26.7126C2.00756 26.6738 1.77444 26.5184 1.65788 26.2205C1.55428 25.9356 1.60608 25.6636 1.80034 25.4305C1.8651 25.3528 1.95576 25.2751 2.03346 25.1974C5.4525 21.7783 8.87154 18.3593 12.2776 14.9532C16.7586 10.4722 21.2267 6.00413 25.7077 1.52312C25.7984 1.43247 25.8761 1.34181 25.9667 1.27706C26.3553 0.966233 26.8862 1.08279 27.1323 1.49722C27.1712 1.57492 27.21 1.65263 27.21 1.74328C27.223 1.84689 27.223 1.96345 27.223 2.06706C27.223 3.60821 27.223 5.16233 27.223 6.70348C27.223 6.78119 27.223 6.84594 27.223 6.92365C27.223 7.02725 27.1712 7.07906 27.0546 7.07906C26.8344 7.07906 26.6143 7.07906 26.3941 7.07906C25.9279 7.07906 25.4746 7.07906 25.0084 7.07906C24.9048 7.07906 24.7882 7.07906 24.6846 7.11791C24.3349 7.22152 24.1018 7.55824 24.1277 7.92087C24.1536 8.28349 24.4515 8.58136 24.8141 8.62022C24.9048 8.63317 25.0084 8.63317 25.112 8.63317C25.7207 8.63317 26.3294 8.63317 26.9381 8.63317C27.0158 8.63317 27.0805 8.64612 27.1582 8.65907C27.1712 8.65907 27.1971 8.68497 27.21 8.71087C27.223 8.77563 27.2359 8.82743 27.2359 8.89219C27.2359 9.24186 27.2359 9.60449 27.2359 9.95416C27.2359 10.1484 27.2359 10.3427 27.2359 10.537C27.2359 10.5758 27.2359 10.6147 27.223 10.6406C27.21 10.6665 27.1841 10.6794 27.1712 10.6924C27.0935 10.7053 27.0028 10.7053 26.9121 10.7053C26.3941 10.7053 25.8631 10.7053 25.3451 10.7053C25.2156 10.7053 25.0731 10.7053 24.9436 10.7571C24.6587 10.8607 24.4774 11.055 24.4126 11.3529C24.3479 11.7284 24.5551 12.0911 24.9177 12.2206C25.0472 12.2594 25.1767 12.2724 25.3192 12.2724C25.7984 12.2724 26.2646 12.2724 26.7438 12.2724C27.2877 12.2724 27.223 12.2076 27.2359 12.7645C27.2359 13.1919 27.2359 13.6193 27.2359 14.0466C27.2359 14.1243 27.2359 14.1891 27.21 14.2668C27.21 14.2927 27.1712 14.3316 27.1323 14.3316C27.0546 14.3445 26.964 14.3445 26.8733 14.3445C26.3682 14.3445 25.8761 14.3445 25.371 14.3445C25.2674 14.3445 25.1767 14.3445 25.0731 14.3445C24.6846 14.3834 24.3738 14.7201 24.3738 15.1086C24.3738 15.5101 24.6846 15.8468 25.099 15.8857C25.1897 15.8857 25.2674 15.8857 25.358 15.8857C25.8372 15.8857 26.3035 15.8857 26.7826 15.8857C26.8862 15.8857 26.9769 15.8857 27.0805 15.8857C27.1582 15.8857 27.21 15.9375 27.21 16.0281C27.21 16.0411 27.21 16.054 27.21 16.067C27.21 16.6368 27.21 17.2067 27.21 17.7765C27.21 17.8154 27.1971 17.8542 27.1841 17.8801C27.1712 17.906 27.1582 17.919 27.1323 17.9319C27.0546 17.9449 26.964 17.9578 26.8862 17.9578C26.3812 17.9578 25.889 17.9578 25.3839 17.9578C25.2803 17.9578 25.1638 17.9578 25.0602 17.9708C24.6328 18.0096 24.2961 18.4241 24.3997 18.8903C24.4644 19.2141 24.7364 19.4601 25.0861 19.499C25.1767 19.5119 25.2544 19.5119 25.3451 19.5119C25.8243 19.5119 26.2905 19.5119 26.7697 19.5119C26.8733 19.5119 26.964 19.5119 27.0676 19.5119C27.1712 19.5119 27.223 19.5637 27.223 19.6673C27.223 19.8746 27.223 20.0818 27.223 20.289C27.223 20.5998 27.223 20.9236 27.223 21.2344C27.223 21.3121 27.223 21.3769 27.21 21.4546C27.21 21.5193 27.1582 21.5582 27.0935 21.5582C26.9899 21.5582 26.8992 21.5582 26.7956 21.5582C26.3164 21.5582 25.8502 21.5582 25.371 21.5582C25.2674 21.5582 25.1767 21.5582 25.0731 21.5711C24.5551 21.6488 24.2831 22.1021 24.4126 22.5554C24.4903 22.8403 24.7493 23.0605 25.0343 23.0993C25.1249 23.1123 25.2285 23.1123 25.3321 23.1123C25.8113 23.1123 26.2776 23.1123 26.7567 23.1123C26.8603 23.1123 26.951 23.1123 27.0546 23.1123C27.1841 23.1123 27.223 23.1641 27.223 23.2936C27.223 23.3972 27.223 23.4879 27.223 23.5915C27.223 24.0447 27.223 24.498 27.223 24.9384C27.223 25.2233 27.223 25.4952 27.223 25.7802C27.223 25.8708 27.223 25.9485 27.21 26.0392C27.1841 26.35 26.951 26.6738 26.5236 26.7385C26.4589 26.7515 26.4071 26.7515 26.3423 26.7515C25.5135 26.7515 24.6846 26.7515 23.8557 26.7515C23.791 26.7515 23.7392 26.7385 23.6744 26.7385C23.6615 26.7385 23.6226 26.7126 23.6226 26.6867C23.6097 26.609 23.5967 26.5443 23.5967 26.4666C23.5967 25.9615 23.5967 25.4434 23.5967 24.9384C23.5967 24.8348 23.5967 24.7441 23.5967 24.6405C23.5708 24.3556 23.4025 24.0577 23.0398 23.9411C22.5995 23.8116 22.1203 24.1095 22.0685 24.5628C22.0556 24.6664 22.0556 24.7829 22.0556 24.8866C22.0556 25.4046 22.0556 25.9356 22.0556 26.4536C22.0556 26.5313 22.0426 26.5961 22.0297 26.6738C22.0297 26.6997 22.0038 26.7126 21.9779 26.7256C21.952 26.7385 21.9261 26.7385 21.9131 26.7385C21.3174 26.7385 20.7216 26.7385 20.1259 26.7385C20.0352 26.7385 19.9834 26.6867 19.9834 26.609C19.9834 26.5054 19.9834 26.4148 19.9834 26.3112C19.9834 25.8449 19.9834 25.3916 19.9834 24.9254C19.9834 24.8218 19.9834 24.7311 19.9834 24.6275C19.9705 24.2261 19.6337 23.8893 19.2193 23.8893C18.8178 23.8893 18.4811 24.2002 18.4423 24.6146C18.4293 24.7052 18.4423 24.7829 18.4423 24.8736C18.4423 25.3398 18.4423 25.7931 18.4423 26.2593C18.4423 26.363 18.4423 26.4536 18.4423 26.5572C18.4423 26.7126 18.4034 26.7385 18.235 26.7385C17.6782 26.7385 17.1213 26.7385 16.5514 26.7385C16.5126 26.7385 16.4737 26.7385 16.4478 26.7256C16.4219 26.7126 16.396 26.6997 16.396 26.6738C16.3831 26.5961 16.3701 26.5313 16.3701 26.4536C16.3701 25.9485 16.3701 25.4305 16.3701 24.9254C16.3701 24.8218 16.3701 24.7311 16.3701 24.6275C16.3313 24.3038 16.1629 24.0577 15.8521 23.9411C15.4117 23.7857 14.9326 24.0577 14.8549 24.511C14.829 24.6275 14.829 24.757 14.829 24.8736C14.829 25.3657 14.829 25.8449 14.829 26.3371C14.829 26.4277 14.829 26.5313 14.816 26.622C14.816 26.6738 14.7642 26.7126 14.7253 26.7256C14.6865 26.7256 14.6476 26.7385 14.6217 26.7385C14.0778 26.7385 13.5209 26.7385 12.977 26.7385C12.9381 26.7385 12.8993 26.7385 12.8734 26.7256C12.8216 26.7256 12.7827 26.6738 12.7698 26.6349C12.7698 26.5443 12.7568 26.4407 12.7568 26.35C12.7568 25.8579 12.7568 25.3787 12.7568 24.8866C12.7568 24.7829 12.7568 24.6923 12.7439 24.5887C12.705 24.2002 12.3812 23.8893 11.9798 23.8893C11.5912 23.8893 11.2545 24.1872 11.2027 24.5757C11.1897 24.6664 11.1897 24.77 11.1897 24.8736C11.1897 25.3657 11.1897 25.8449 11.1897 26.3371C11.1897 26.4407 11.1897 26.5313 11.1768 26.6349C11.1768 26.6867 11.125 26.7256 11.0861 26.7385C11.0343 26.7385 10.9955 26.7515 10.9437 26.7515C10.4256 26.7515 9.89466 26.7515 9.37662 26.7515C9.32482 26.7515 9.28597 26.7515 9.23416 26.7385C9.19531 26.7385 9.14351 26.6867 9.14351 26.6479C9.14351 26.5572 9.13056 26.4536 9.13056 26.363C9.13056 25.8838 9.13056 25.4175 9.13056 24.9384C9.13056 24.8348 9.13056 24.7441 9.11761 24.6405C9.07875 24.3297 8.92334 24.0966 8.62547 23.967C8.23694 23.7987 7.73186 24.0188 7.60235 24.4592C7.5635 24.5757 7.5635 24.6923 7.5635 24.8218C7.5635 25.3269 7.5635 25.8449 7.5635 26.35C7.5635 26.4407 7.5635 26.5443 7.55055 26.6349C7.55055 26.6867 7.49874 26.7256 7.45989 26.7385C7.35628 26.7385 7.23972 26.7515 7.13612 26.7515C6.39792 26.7126 5.64676 26.7126 4.88266 26.7126ZM17.7041 22.0503C18.9732 22.0503 20.2295 22.0503 21.4987 22.0503C21.6023 22.0503 21.7188 22.0503 21.8224 22.0503C21.9001 22.0503 21.9649 22.0374 22.0426 22.0115C22.3793 21.8949 22.5477 21.6488 22.5865 21.2992C22.5995 21.2085 22.5865 21.1049 22.5865 21.0013C22.5865 18.45 22.5865 15.8986 22.5865 13.3343C22.5865 13.2566 22.5865 13.1919 22.5865 13.1142C22.5865 13.0365 22.5736 12.9717 22.5606 12.894C22.4182 12.3242 21.7706 12.117 21.3174 12.4796C21.2267 12.5573 21.136 12.6479 21.0583 12.7257C19.9446 13.8394 18.8178 14.9662 17.7041 16.0799C16.2277 17.5563 14.7512 19.0327 13.2619 20.5221C13.1712 20.6128 13.0806 20.6905 13.0158 20.7811C12.8345 21.0272 12.8086 21.2992 12.9252 21.5711C13.0417 21.8301 13.2619 21.9855 13.5468 22.0115C13.6504 22.0244 13.767 22.0244 13.8706 22.0244C15.1527 22.0503 16.4219 22.0503 17.7041 22.0503Z" fill="#00C7A2"/>
<path d="M18.8823 6.00402C18.8823 6.04287 18.8952 6.09467 18.8823 6.10762C18.8046 6.19828 18.7139 6.28894 18.6362 6.36664C16.8231 8.17977 15.0099 9.9929 13.1968 11.819C11.4355 13.5803 9.68712 15.3287 7.9258 17.09C7.84809 17.1677 7.77039 17.2454 7.69268 17.3231C7.57612 17.4397 7.53727 17.4397 7.42071 17.3231C7.22645 17.1288 7.04513 16.9475 6.85087 16.7533C6.08677 15.9892 5.32266 15.2251 4.55856 14.461C4.48086 14.3833 4.40315 14.3055 4.3384 14.2278C4.31249 14.2019 4.31249 14.1631 4.3384 14.1242C4.4161 14.0465 4.48086 13.9559 4.55856 13.8911C6.24218 12.2075 7.9258 10.5239 9.62237 8.82731C11.4743 6.97533 13.3393 5.1104 15.1913 3.25842C15.2819 3.16777 15.3855 3.07711 15.4891 2.98645C15.515 2.96055 15.5668 2.98646 15.5798 3.02531C15.5927 3.10301 15.6057 3.19367 15.6186 3.27138C15.6963 3.84122 15.8906 4.35925 16.2403 4.81253C16.6677 5.36942 17.2375 5.73205 17.9239 5.91336C18.17 5.97811 18.429 6.01697 18.675 6.01697C18.7269 5.99106 18.7916 5.99107 18.8823 6.00402Z" fill="#00C7A2"/>
<path d="M0.764038 17.9575C0.764038 17.7762 0.828793 17.6208 0.9324 17.4783C0.971252 17.4265 1.02306 17.3747 1.07486 17.3229C1.70945 16.6883 2.34405 16.0537 2.97864 15.4191C3.0175 15.3803 3.05635 15.3544 3.08225 15.3285C3.10815 15.3026 3.15996 15.3026 3.18586 15.3285C3.26356 15.3932 3.32832 15.458 3.40602 15.5228C4.02767 16.1444 4.64931 16.766 5.258 17.3747C5.56882 17.6856 5.87965 17.9964 6.19047 18.3072C6.25522 18.372 6.30703 18.4238 6.35883 18.5015C6.37178 18.5274 6.37178 18.5792 6.35883 18.6051C6.33293 18.6439 6.30703 18.6828 6.26817 18.7216C5.62063 19.3692 4.97308 20.0167 4.33849 20.6513C4.29963 20.6902 4.24783 20.742 4.20898 20.7679C3.92406 20.988 3.54848 21.001 3.26356 20.7808C3.18586 20.729 3.1211 20.6513 3.0434 20.5866C2.39585 19.939 1.73536 19.2785 1.08781 18.631C1.03601 18.5792 0.984203 18.5274 0.9324 18.4756C0.828793 18.3202 0.764038 18.1518 0.764038 17.9575Z" fill="#00C7A2"/>
<path d="M17.1207 2.76627C17.1207 2.4684 17.1725 2.18347 17.2632 1.91151C17.302 1.8079 17.3538 1.74314 17.4445 1.70429C17.9366 1.47117 18.4288 1.23806 18.9339 1.00494C19.3353 0.810678 19.7498 0.616415 20.1512 0.422151C20.2419 0.383299 20.3196 0.331496 20.4232 0.305594C20.7211 0.189036 21.006 0.253789 21.2391 0.473954C21.4722 0.69412 21.5111 0.979041 21.4334 1.27691C21.4204 1.32872 21.3945 1.39347 21.3686 1.44527C20.9671 2.28708 20.5657 3.14184 20.1642 3.98365C20.1124 4.10021 20.0217 4.17791 19.9052 4.21677C19.5296 4.35923 19.1411 4.44988 18.7266 4.43693C18.5324 4.43693 18.3381 4.39808 18.1568 4.33332C17.6906 4.16496 17.3797 3.84119 17.2243 3.37496C17.1466 3.18069 17.1207 2.97348 17.1207 2.76627Z" fill="#00C7A2"/>
</svg>
