<svg width="36" height="31" viewBox="0 0 36 31" fill="none" xmlns="http://www.w3.org/2000/svg">
<path d="M0.774658 29.8702C0.859686 29.8276 0.916372 29.7426 0.958886 29.6576C1.07226 29.4592 1.25648 29.36 1.48323 29.3458C1.5966 29.3458 1.72414 29.3458 1.83751 29.3458C2.75865 29.3458 3.67979 29.3458 4.58676 29.3458C4.70013 29.3458 4.82767 29.3316 4.94104 29.3316C4.98355 29.3316 5.04024 29.2608 5.04024 29.2183C5.04024 29.1049 5.05441 28.9774 5.05441 28.864C5.05441 27.6594 5.05441 26.469 5.05441 25.2645C5.04024 18.7173 5.04024 12.1701 5.02607 5.60878C5.02607 5.31118 5.02607 5.02775 5.05441 4.73015C5.23864 3.0721 6.32983 1.51325 8.00206 0.86137C9.24914 0.379543 10.4962 0.379543 11.7433 0.86137C12.6361 1.20148 13.3588 1.78251 13.8973 2.57611C13.954 2.64696 13.9965 2.73199 14.0391 2.81702C14.0957 2.94456 14.0957 3.0721 14.0391 3.19965C13.8832 3.58227 13.4013 3.68147 13.1179 3.39804C13.0471 3.32719 12.9762 3.22799 12.9195 3.14296C12.5511 2.63279 12.0834 2.25016 11.5166 1.99508C11.1198 1.81085 10.7088 1.71165 10.2836 1.68331C9.77348 1.65497 9.27748 1.66914 8.78148 1.81085C7.27932 2.23599 6.23064 3.58227 6.18812 5.09861C6.18812 5.25449 6.18812 5.42455 6.18812 5.58044C6.20229 13.3322 6.20229 21.0839 6.21646 28.8215C6.21646 28.9349 6.21646 29.0624 6.21646 29.1758C6.21646 29.2608 6.27315 29.3316 6.35818 29.3316C6.45738 29.3316 6.57075 29.3316 6.68412 29.3458C6.76915 29.3458 6.84 29.36 6.92503 29.3742C7.09509 29.4025 7.22263 29.5017 7.30766 29.6434C7.49189 29.9268 7.36434 30.3236 7.05257 30.437C6.98172 30.4654 6.89669 30.4795 6.82583 30.4937C6.72663 30.5079 6.6416 30.4937 6.54241 30.4937C4.94104 30.4937 3.35385 30.4937 1.75248 30.4937C1.65328 30.4937 1.56825 30.4937 1.46906 30.4937C1.25648 30.4795 1.08643 30.3945 0.973057 30.1961C0.916372 30.1111 0.859686 30.0119 0.774658 29.941C0.774658 29.9127 0.774658 29.8843 0.774658 29.8702Z" fill="#00C7A2"/>
<path d="M21.2666 18.8023C21.2666 20.2195 21.2666 21.6508 21.2666 23.0679C21.2666 23.1955 21.2666 23.3372 21.2524 23.4647C21.2241 23.734 21.0257 23.9324 20.7564 23.9607C20.6572 23.9749 20.5722 23.9749 20.473 23.9749C19.1126 23.9749 17.7521 23.9749 16.4058 23.9749C16.3066 23.9749 16.1933 23.9749 16.0941 23.9607C15.8532 23.9324 15.6548 23.7198 15.6406 23.4789C15.6264 23.3513 15.6264 23.2096 15.6264 23.0821C15.6264 22.6711 15.5839 22.2601 15.4422 21.8634C15.017 20.6163 14.1809 19.7943 12.9197 19.4117C12.5654 19.2983 12.1969 19.27 11.8143 19.2558C11.6868 19.2558 11.5451 19.2558 11.4175 19.2416C11.1483 19.2133 10.9499 19.0149 10.9215 18.7598C10.9073 18.6748 10.9073 18.6039 10.9073 18.5189C10.9073 17.9237 10.9073 17.3143 10.9073 16.7191C10.9073 16.2231 11.0065 15.7413 11.2333 15.302C11.7718 14.2817 12.6221 13.7148 13.7841 13.6298C13.94 13.6156 14.1101 13.6156 14.266 13.6156C16.3066 13.6156 18.3331 13.6156 20.3738 13.6156C20.5014 13.6156 20.6431 13.6156 20.7706 13.6298C21.0257 13.6581 21.2241 13.8424 21.2524 14.0833C21.2666 14.2108 21.2666 14.3525 21.2666 14.4801C21.2666 15.9255 21.2666 17.3569 21.2666 18.8023Z" fill="#00C7A2"/>
<path d="M22.414 18.7881C22.414 17.371 22.414 15.968 22.414 14.5509C22.414 14.4375 22.414 14.31 22.414 14.1966C22.414 13.8707 22.669 13.6297 22.9666 13.6297C23.0658 13.6297 23.1509 13.6297 23.2501 13.6297C25.3049 13.6297 27.3456 13.6297 29.4004 13.6297C29.7122 13.6297 30.0098 13.6439 30.3074 13.7148C31.4978 13.9982 32.4473 15.0469 32.589 16.2656C32.6173 16.464 32.6315 16.6624 32.6315 16.8608C32.6315 17.3993 32.6315 17.9237 32.6315 18.4622C32.6315 18.5614 32.6315 18.6464 32.6173 18.7456C32.5748 19.0857 32.3339 19.2558 32.0647 19.2699C31.9229 19.2699 31.7671 19.2699 31.6253 19.2841C30.5625 19.3408 29.6697 19.7659 28.9611 20.5595C28.451 21.1406 28.1534 21.8066 28.0825 22.5719C28.0542 22.7844 28.0542 22.997 28.04 23.2096C28.04 23.3088 28.04 23.4222 28.0258 23.5214C27.9975 23.7481 27.8132 23.9323 27.5723 23.9607C27.4873 23.9748 27.3881 23.9748 27.2889 23.9748C25.9001 23.9748 24.5255 23.9748 23.1367 23.9748C23.0375 23.9748 22.9525 23.9748 22.8533 23.9607C22.6265 23.9182 22.4423 23.7339 22.414 23.5072C22.3998 23.3938 22.3998 23.2663 22.3998 23.1529C22.3998 21.8917 22.3998 20.6162 22.3998 19.355C22.414 19.1566 22.414 18.9724 22.414 18.7881Z" fill="#00C7A2"/>
<path d="M21.8757 25.1228C23.6329 25.1228 25.3902 25.1228 27.1474 25.1228C27.275 25.1228 27.4167 25.1228 27.5442 25.1369C27.8135 25.1653 28.0119 25.3637 28.0402 25.6329C28.0544 25.7321 28.0544 25.8455 28.0544 25.9589C28.0544 27.2059 28.0544 28.4672 28.0544 29.7143C28.0544 29.8135 28.0544 29.9269 28.0402 30.0261C27.9977 30.2528 27.856 30.4087 27.6293 30.4654C27.5726 30.4795 27.5017 30.4937 27.4309 30.4937C27.3317 30.4937 27.2466 30.4937 27.1474 30.4937C23.6046 30.4937 20.0618 30.4937 16.5189 30.4937C16.3914 30.4937 16.2497 30.4937 16.1221 30.4795C15.9662 30.4654 15.8387 30.4087 15.7395 30.2811C15.6686 30.1961 15.6261 30.0969 15.6119 29.9977C15.6119 29.8985 15.5978 29.8135 15.5978 29.7143C15.5978 28.453 15.5978 27.1918 15.5978 25.9164C15.5978 25.8172 15.5978 25.7321 15.6119 25.6329C15.6403 25.3778 15.8387 25.1653 16.1079 25.1369C16.2497 25.1228 16.4055 25.1228 16.5473 25.1228C18.3329 25.1228 20.1043 25.1228 21.8757 25.1228Z" fill="#00C7A2"/>
<path d="M29.2025 26.3132C29.2025 25.307 29.2025 24.2867 29.2025 23.2805C29.2025 23.1247 29.2025 22.9546 29.2167 22.7987C29.2875 21.5233 30.3504 20.4888 31.5975 20.4321C31.9943 20.4179 32.3911 20.4179 32.802 20.4321C33.8791 20.4746 34.8994 21.2682 35.1545 22.4303C35.2112 22.6712 35.2253 22.8979 35.2253 23.1388C35.2253 24.2442 35.2253 25.3496 35.2253 26.4549C35.2253 26.9226 35.2253 27.3902 35.2253 27.8579C35.2253 28.0563 35.2112 28.2547 35.1687 28.4531C34.9277 29.6577 33.9074 30.3662 33.043 30.4654C32.8729 30.4796 32.7028 30.4938 32.5186 30.4938C31.6825 30.4938 30.8464 30.4938 29.9961 30.4938C29.8969 30.4938 29.8119 30.4938 29.7127 30.4796C29.4151 30.4371 29.2309 30.2103 29.2167 29.9411C29.2167 29.8277 29.2167 29.7002 29.2167 29.5868C29.2025 28.4956 29.2025 27.4044 29.2025 26.3132Z" fill="#00C7A2"/>
<path d="M14.4785 26.3273C14.4785 27.4185 14.4785 28.5096 14.4785 29.6008C14.4785 29.7284 14.4785 29.8701 14.4643 29.9976C14.4359 30.2386 14.2659 30.4086 14.025 30.4653C13.9541 30.4795 13.8691 30.4936 13.7841 30.4936C12.8629 30.4936 11.9418 30.4936 11.0206 30.4936C10.6664 30.4936 10.3262 30.437 10.0145 30.2811C9.065 29.8276 8.55483 29.0765 8.4698 28.0278C8.45563 27.9286 8.4698 27.8153 8.4698 27.7019C8.4698 26.1997 8.4698 24.6976 8.4698 23.1812C8.4698 22.9686 8.48397 22.7561 8.51231 22.5435C8.72488 21.2823 9.81608 20.4178 10.9498 20.4036C11.2899 20.4036 11.6442 20.4036 11.9843 20.4036C12.9763 20.4036 14.0958 21.098 14.4076 22.3734C14.4359 22.4585 14.4501 22.5577 14.4501 22.6427C14.4643 22.8411 14.4643 23.0395 14.4785 23.2379C14.4785 23.2662 14.4785 23.2946 14.4785 23.3229C14.4785 24.3291 14.4785 25.3353 14.4785 26.3273Z" fill="#00C7A2"/>
<path d="M14.1666 10.257C13.1463 10.257 12.1118 10.257 11.0915 10.257C10.9639 10.257 10.8222 10.257 10.6947 10.2429C10.4112 10.2145 10.1987 9.9736 10.1987 9.70434C10.1987 9.20835 10.1561 8.71235 10.2128 8.23052C10.2979 7.47944 10.5813 6.78504 11.0631 6.18984C11.715 5.39625 12.5511 4.90025 13.5573 4.73019C14.4926 4.57431 15.3854 4.74437 16.2073 5.24036C17.341 5.92059 17.9787 6.94093 18.163 8.24469C18.1771 8.35806 18.1771 8.48561 18.1771 8.59898C18.1771 8.92492 18.1771 9.23669 18.1771 9.56263C18.1771 9.63349 18.1771 9.69017 18.163 9.76103C18.1346 9.98777 17.9646 10.1862 17.7378 10.2287C17.6245 10.257 17.4969 10.257 17.3835 10.257C17.0009 10.257 16.6041 10.257 16.2215 10.257C15.5413 10.257 14.861 10.257 14.1666 10.257Z" fill="#00C7A2"/>
</svg>
