<svg width="33" height="31" viewBox="0 0 33 31" fill="none" xmlns="http://www.w3.org/2000/svg">
<path d="M16.5228 30.4696C11.7901 30.4696 7.04549 30.4696 2.31278 30.4696C2.19417 30.4696 2.06369 30.4696 1.94508 30.4696C1.87391 30.4696 1.8146 30.4577 1.74343 30.4459C1.48248 30.3984 1.28084 30.1493 1.39945 29.8053C1.43504 29.6986 1.49434 29.6037 1.56551 29.5207C1.74343 29.319 1.92135 29.1174 2.123 28.9394C2.88213 28.2633 3.70057 27.6703 4.55459 27.1128C4.56645 27.1009 4.57831 27.1009 4.57831 27.0891C5.68143 26.3537 6.82012 25.6657 7.97068 25.0133C8.48072 24.7286 8.9789 24.4558 9.50081 24.183C10.343 23.7323 11.197 23.2934 12.0747 22.8901C12.8695 22.5105 13.6642 22.1428 14.4826 21.7989C15.4078 21.4074 16.333 21.0279 17.27 20.6839C18.385 20.2687 19.5118 19.8773 20.6624 19.5452C21.4215 19.3198 22.1807 19.1182 22.9517 18.9165C23.3075 18.8216 23.6633 18.7505 24.0311 18.6793C24.1497 18.6556 24.2683 18.62 24.3869 18.5963C24.4581 18.5726 24.5055 18.5251 24.5055 18.4539C24.5055 18.3946 24.5174 18.3472 24.5174 18.2879C24.5411 17.2559 24.5648 16.2121 24.5885 15.1802C24.5885 15.0972 24.5767 15.0023 24.5648 14.9192C24.5648 14.9074 24.5292 14.8837 24.5174 14.8837C24.4343 14.8955 24.3394 14.9074 24.2564 14.9311C22.1925 15.4886 20.1642 14.0889 19.8321 12.0844C19.6423 10.9575 19.927 9.96117 20.6624 9.09528C20.7099 9.04784 20.7573 9.00038 20.7929 8.95294C20.8403 8.89363 20.8403 8.84618 20.7929 8.77502C20.7692 8.73943 20.7454 8.70385 20.7099 8.66826C20.4133 8.30056 20.2235 7.87355 20.1286 7.41095C20.0693 7.16186 20.0456 6.90091 20.0693 6.65182C20.0693 6.60437 20.0812 6.56879 20.0812 6.52135C20.1286 5.83338 20.4015 5.25217 20.8403 4.74213C21.1369 4.38629 21.5046 4.12534 21.9434 3.94742C22.1451 3.86439 22.3586 3.79323 22.584 3.75764C22.6433 3.74578 22.6907 3.73392 22.75 3.71019C22.7975 3.69833 22.8212 3.66274 22.833 3.6153C22.8449 3.55599 22.8449 3.50854 22.8449 3.44923C22.8805 2.89175 23.0466 2.3817 23.355 1.90725C23.5091 1.67002 23.6989 1.44465 23.9243 1.25487C24.1022 1.11253 24.2801 0.982062 24.4699 0.87531C24.802 0.697388 25.146 0.590632 25.5137 0.531325C25.9407 0.460157 26.3559 0.49575 26.771 0.614364C27.0676 0.697394 27.3404 0.816005 27.5895 0.982065C27.8386 1.13626 28.0639 1.31418 28.2537 1.53955C28.4316 1.74119 28.5858 1.95469 28.7045 2.20378C28.9061 2.60707 29.0366 3.03409 29.0484 3.48482C29.0603 3.78136 29.0247 4.08976 28.9417 4.37443C28.918 4.45746 28.8942 4.55235 28.8824 4.63538C28.8705 4.67096 28.9061 4.73027 28.9298 4.75399C28.9773 4.77771 29.0247 4.80145 29.084 4.82517C29.7483 5.10984 30.2346 5.57244 30.5786 6.20109C30.8514 6.69927 30.97 7.2449 30.9344 7.81424C30.9107 8.26498 30.8751 8.15823 31.2072 8.46662C31.7884 9.01225 32.1443 9.67649 32.2866 10.4593C32.5238 11.7048 32.0494 13.14 30.8277 14.0059C30.3295 14.3617 29.772 14.5753 29.1552 14.6464C28.7045 14.6939 28.2656 14.6583 27.8267 14.5397C27.7674 14.5278 27.72 14.516 27.6606 14.5041C27.6013 14.4922 27.5539 14.5278 27.542 14.5871C27.542 14.6464 27.5302 14.6939 27.542 14.7532C27.5658 15.7377 27.5776 16.7103 27.6013 17.6948C27.6132 18.1456 27.5895 18.1337 28.0284 18.0862C28.5858 18.0388 29.1433 18.0151 29.7008 17.9914C30.2109 17.9676 30.7209 18.0032 31.2428 18.0269C31.397 18.0388 31.5512 18.0744 31.6935 18.1337C32.0019 18.2642 32.2036 18.4895 32.2747 18.8098C32.3103 18.9403 32.3103 19.0707 32.334 19.2012C32.3459 19.2842 32.334 19.3554 32.334 19.4384C32.334 22.5936 32.334 25.7487 32.334 28.9039C32.334 29.0818 32.3222 29.2597 32.2985 29.4376C32.2747 29.6511 32.2036 29.8528 32.0731 30.0188C31.8952 30.2679 31.6579 30.4103 31.3614 30.4696C31.2191 30.4933 31.0767 30.5052 30.9344 30.5052C26.1305 30.4696 21.3266 30.4696 16.5228 30.4696Z" fill="#00C7A2"/>
<path d="M0.0237228 21.0634C0.0237228 19.3554 0.0237228 17.6474 0.0237228 15.9512C0.0237228 15.8444 0.0237228 15.7258 0.0237228 15.6191C0.0474457 15.2632 0.213506 14.9904 0.521903 14.7888C0.711686 14.6702 0.91333 14.5871 1.12684 14.5159C1.36406 14.4448 1.60129 14.3973 1.85038 14.3736C2.59765 14.2906 3.34492 14.3024 4.09219 14.3617C4.72085 14.4092 5.36136 14.4804 5.99002 14.5753C6.21539 14.6108 6.42889 14.6464 6.65426 14.682C6.72543 14.6939 6.80846 14.6939 6.89149 14.7057C6.92707 14.7057 6.98638 14.6583 6.98638 14.6346C6.98638 14.5871 6.99824 14.5515 6.99824 14.5041C7.0101 13.9466 7.03383 13.3891 7.04569 12.8316C7.04569 12.7605 7.04569 12.7011 7.04569 12.63C7.04569 12.5707 6.98638 12.5351 6.92707 12.5351C6.89149 12.5351 6.85591 12.5469 6.83218 12.5588C6.47634 12.6418 6.1205 12.6537 5.76465 12.5825C5.49184 12.5351 5.23089 12.4521 4.96994 12.3216C4.60223 12.1318 4.28197 11.8709 4.02102 11.5387C3.8431 11.3134 3.71263 11.0524 3.60587 10.7796C3.51098 10.5305 3.4754 10.2577 3.45168 9.99675C3.42795 9.71207 3.46354 9.43926 3.53471 9.16645C3.64146 8.76316 3.81938 8.39544 4.09219 8.07519C4.11592 8.0396 4.1515 8.00403 4.17522 7.96844C4.19895 7.93286 4.19895 7.8854 4.17522 7.83796C4.1515 7.79051 4.11592 7.74307 4.09219 7.69563C3.71263 7.13814 3.59401 6.5332 3.71263 5.88082C3.89055 4.92005 4.62596 4.22023 5.46812 4.00673C5.52742 3.99486 5.57487 3.983 5.63418 3.95928C5.69349 3.94742 5.72907 3.89997 5.74093 3.84066C5.75279 3.78136 5.76465 3.73391 5.76465 3.6746C5.8121 3.12897 6.03747 2.66639 6.41703 2.27496C6.80846 1.87167 7.28292 1.62258 7.85227 1.56327C8.21997 1.51583 8.58767 1.5514 8.94352 1.67002C9.31122 1.78863 9.63148 2.00215 9.89243 2.27496C10.1534 2.54777 10.355 2.86803 10.4618 3.24759C10.5804 3.63902 10.5923 4.03045 10.5211 4.43373C10.5092 4.5049 10.4974 4.5642 10.4855 4.63537C10.4736 4.68282 10.4974 4.73026 10.5329 4.75399C10.5804 4.78957 10.6278 4.8133 10.6753 4.83703C11.5412 5.26404 12.0512 6.17737 11.98 7.13814C11.98 7.17373 11.98 7.2093 11.9682 7.23303C11.9682 7.29233 11.98 7.33979 12.0275 7.38723C12.0868 7.44654 12.158 7.50584 12.2173 7.57701C12.7155 8.08705 12.9883 8.69199 13.012 9.40367C13.0357 9.99675 12.8934 10.5542 12.5613 11.0524C12.3122 11.432 11.9919 11.7285 11.5886 11.9539C11.0786 12.2386 10.5211 12.3453 9.93988 12.286C9.8094 12.2741 9.67892 12.2504 9.54845 12.2267C9.51286 12.2267 9.46542 12.2623 9.45356 12.3097C9.45356 12.3334 9.4417 12.3572 9.4417 12.3809C9.4417 12.4283 9.4417 12.4758 9.4417 12.5114C9.46542 13.3535 9.47728 14.2075 9.501 15.0497C9.501 15.0734 9.501 15.0972 9.501 15.1209C9.51287 15.2514 9.53659 15.2869 9.67893 15.3225C10.1771 15.4649 10.6634 15.5953 11.1616 15.7377C11.3277 15.7851 11.5056 15.8444 11.6716 15.8919C12.0156 16.0105 12.3715 16.1291 12.7155 16.2477C13.6999 16.568 14.6489 16.9831 15.5741 17.4576C15.7876 17.5643 16.0011 17.6948 16.2146 17.8253C16.2264 17.8253 16.2383 17.8371 16.2383 17.8371C16.606 18.0507 16.4992 18.5014 16.2502 18.6793C16.1671 18.7386 16.0722 18.7742 15.9773 18.8098C15.5147 18.9996 15.0522 19.1894 14.5777 19.3673C13.783 19.6875 13.0001 20.0315 12.2173 20.3874C10.8888 20.9923 9.58403 21.6328 8.29114 22.3208C7.57945 22.7003 6.87963 23.0799 6.19167 23.495C5.83582 23.7085 5.47998 23.9102 5.12414 24.1237C4.95808 24.2186 4.80388 24.3253 4.63782 24.4202C4.12778 24.7524 3.60587 25.0845 3.09583 25.4166C2.41973 25.8673 1.76735 26.3536 1.12684 26.8637C1.03194 26.9349 0.937053 27.0179 0.8303 27.0772C0.699824 27.1602 0.569349 27.184 0.41515 27.1484C0.272813 27.1128 0.177921 27.0416 0.106753 26.9111C0.0474458 26.8162 0.0237229 26.7095 0.0118615 26.5909C4.5071e-08 26.4841 0 26.3655 0 26.2588C0.0237229 24.5507 0.0237228 22.8071 0.0237228 21.0634Z" fill="#00C7A2"/>
</svg>
