<?xml version="1.0" encoding="utf-8"?>
<!-- Generator: Adobe Illustrator 27.5.0, SVG Export Plug-In . SVG Version: 6.00 Build 0)  -->
<svg version="1.1" id="Layer_1" xmlns="http://www.w3.org/2000/svg" xmlns:xlink="http://www.w3.org/1999/xlink" x="0px" y="0px"
	 viewBox="0 0 359.81 171.68" style="enable-background:new 0 0 359.81 171.68;" xml:space="preserve">
<style type="text/css">
	.st0{fill:#FFFFFF;}
	.st1{fill:#26477F;}
</style>
<g>
	<path class="st0" d="M127.58,68.27h-3.24v13.82h2.82c8.67,0,11.07-2.33,11.07-6.84C138.22,69.75,134.98,68.27,127.58,68.27
		 M141.11,88.99c-2.89,1.76-6.27,2.33-13.68,2.33h-3.1v15.23h-9.66V59.03h12.9c6.91,0,10.36,0.63,13.32,2.4
		c4.51,2.75,7.05,7.68,7.05,13.68C147.95,81.1,145.34,86.38,141.11,88.99"/>
	<path class="st0" d="M160.35,84.83v21.71h-9.38V67.49h8.6v3.81c2.47-3.6,4.44-4.72,8.46-4.72h0.71v9.02
		C163.1,75.74,160.35,78.77,160.35,84.83"/>
	<path class="st0" d="M189.98,75.18c-6.13,0-11.28,5.29-11.28,11.7c0,6.7,5.01,11.98,11.35,11.98c6.2,0,11.28-5.29,11.28-11.84
		C201.33,80.53,196.25,75.18,189.98,75.18 M189.98,107.46c-11.42,0-20.73-9.16-20.73-20.44c0-11.21,9.31-20.44,20.65-20.44
		c11.77,0,20.87,9.09,20.87,20.73C210.77,98.3,201.33,107.46,189.98,107.46"/>
	<path class="st0" d="M234.88,75.18c-6.49,0-11.42,5.08-11.42,11.77c0,6.84,4.93,11.91,11.56,11.91c6.2,0,11.07-5.15,11.07-11.77
		C246.09,80.32,241.23,75.18,234.88,75.18 M236.01,107.46c-4.79,0-8.46-1.41-11.98-4.58v14.34h-9.38V67.49h8.6v4.58
		c3.03-3.52,7.54-5.5,12.83-5.5c11.28,0,19.46,8.53,19.46,20.3C255.54,98.72,247.29,107.46,236.01,107.46"/>
	<path class="st0" d="M279.51,75.18c-5.57,0-9.38,2.75-10.86,7.76h21.64C289.1,77.93,285.29,75.18,279.51,75.18 M299.18,91.18
		h-30.24c1.13,4.72,5.22,7.68,10.79,7.68c3.88,0,6.2-1.06,8.6-3.88h10.22c-2.61,8.04-10.72,12.48-18.61,12.48
		c-11.91,0-21.15-8.88-21.15-20.3c0-11.49,9.09-20.58,20.58-20.58c11.63,0,20.16,8.88,20.16,21.01
		C299.53,88.99,299.46,89.84,299.18,91.18"/>
	<rect x="303" y="54.45" class="st0" width="9.38" height="52.1"/>
	<rect x="318.51" y="54.45" class="st0" width="9.38" height="52.1"/>
	<path class="st1" d="M31.92,63.21v40.19c0,2.56,4.08,4.64,6.64,4.64H40V58.57h-1.44C36,58.57,31.92,60.65,31.92,63.21"/>
	<path class="st1" d="M51.43,67.85v31.15c0,5.13,5.15,9.28,10.28,9.28h2.42V58.57h-2.42C56.58,58.57,51.43,62.73,51.43,67.85"/>
	<path class="st1" d="M91.36,58.57h-3.4c-7.69,0-13.92,6.23-13.92,13.92v22.13c0,7.69,6.23,13.92,13.92,13.92h3.4V58.57z"/>
</g>
</svg>
