<svg width="123" height="63" viewBox="0 0 123 63" fill="none" xmlns="http://www.w3.org/2000/svg">
<path d="M12.3904 42.5127C11.0137 43.3387 9.47175 43.6141 6.00245 43.6141H4.5156V50.7179H0V28.5254H6.00245C9.25148 28.5254 10.8485 28.8007 12.2252 29.6268C14.3178 30.8933 15.5293 33.2062 15.5293 36.0147C15.5843 38.8232 14.3728 41.3012 12.3904 42.5127ZM6.05751 32.8207H4.5156V39.2637H5.83724C9.91229 39.2637 11.0137 38.1623 11.0137 36.0697C11.0137 33.5366 9.52681 32.8207 6.05751 32.8207Z" fill="#E0DCDD"/>
<path d="M21.3664 40.5851V50.7177H16.9609V32.4901H20.9809V34.2523C22.1374 32.6002 23.0735 32.0496 24.9458 32.0496H25.2763V36.2898C22.633 36.3449 21.3664 37.7216 21.3664 40.5851Z" fill="#E0DCDD"/>
<path d="M35.1886 51.1583C29.847 51.1583 25.4966 46.863 25.4966 41.6315C25.4966 36.4001 29.847 32.1047 35.1335 32.1047C40.6404 32.1047 44.8806 36.345 44.8806 41.7967C44.8806 46.863 40.4752 51.1583 35.1886 51.1583ZM35.1886 36.0696C32.3251 36.0696 29.902 38.5477 29.902 41.5214C29.902 44.6603 32.2149 47.1384 35.1886 47.1384C38.1072 47.1384 40.4752 44.6603 40.4752 41.6315C40.4752 38.5477 38.1072 36.0696 35.1886 36.0696Z" fill="#E0DCDD"/>
<path d="M56.6653 51.1582C54.4075 51.1582 52.7003 50.4974 51.0483 49.0106V55.7289H46.6428V32.4901H50.6628V34.6378C52.0946 32.9857 54.1872 32.0496 56.6653 32.0496C61.9518 32.0496 65.7515 36.0145 65.7515 41.5213C65.8066 47.0832 61.9518 51.1582 56.6653 51.1582ZM56.1696 36.0695C53.1409 36.0695 50.828 38.4375 50.828 41.5764C50.828 44.7703 53.1409 47.1383 56.2247 47.1383C59.1433 47.1383 61.4011 44.7153 61.4011 41.6314C61.4011 38.4925 59.1433 36.0695 56.1696 36.0695Z" fill="#E0DCDD"/>
<path d="M86.1822 43.5588H72.0848C72.6354 45.7616 74.5078 47.1383 77.096 47.1383C78.9132 47.1383 80.0146 46.6426 81.1159 45.321H85.9069C84.6954 49.0657 80.8957 51.1582 77.2061 51.1582C71.6442 51.1582 67.3489 47.0281 67.3489 41.6865C67.3489 36.3449 71.5891 32.0496 76.9858 32.0496C82.4376 32.0496 86.4025 36.1797 86.4025 41.8517C86.3474 42.5125 86.2924 42.898 86.1822 43.5588ZM76.9858 36.0695C74.3976 36.0695 72.5804 37.3361 71.9196 39.704H82.0521C81.5014 37.3361 79.6842 36.0695 76.9858 36.0695Z" fill="#E0DCDD"/>
<path d="M92.3493 26.3777H87.9438V50.7179H92.3493V26.3777Z" fill="#E0DCDD"/>
<path d="M99.6188 26.3777H95.2134V50.7179H99.6188V26.3777Z" fill="#E0DCDD"/>
<path d="M122.968 15.0887C122.968 13.0512 121.316 11.4542 119.334 11.4542H108.816C106.778 11.4542 105.181 13.1062 105.181 15.0887V3.6345C105.181 1.59697 103.529 0 101.547 0H100.776V12.9961C100.776 15.0336 102.428 16.6306 104.41 16.6306H90.4229V17.4016C90.4229 19.4391 92.0749 21.0361 94.0573 21.0361H101.492C103.529 21.0361 105.126 19.384 105.126 17.4016V28.7456H105.897C107.935 28.7456 109.532 27.0936 109.532 25.1111V19.5492C109.532 17.5117 107.879 15.9147 105.897 15.9147H122.968V15.0887Z" fill="#00C7A2"/>
<path d="M1.92841 55.7842V56.2247H0.82705V56.8855H1.65307V57.271H0.82705V58.4274H0.276367V55.7842H1.92841Z" fill="#E0DCDD"/>
<path d="M2.97503 58.2623C2.75476 58.1522 2.58954 57.9869 2.47941 57.7667C2.36927 57.5464 2.31421 57.3261 2.31421 57.0508C2.31421 56.7754 2.36927 56.5552 2.47941 56.3349C2.58954 56.1146 2.75476 55.9494 2.97503 55.8393C3.19531 55.7291 3.41557 55.6741 3.63584 55.6741C3.85612 55.6741 4.13146 55.7291 4.29667 55.8393C4.51694 55.9494 4.68214 56.1146 4.79228 56.3349C4.90242 56.5552 4.95748 56.7754 4.95748 57.0508C4.95748 57.3261 4.90242 57.5464 4.79228 57.7667C4.68214 57.9869 4.51694 58.1522 4.29667 58.2623C4.0764 58.3724 3.85612 58.4275 3.63584 58.4275C3.41557 58.4275 3.19531 58.3724 2.97503 58.2623ZM4.0764 57.8768C4.18654 57.8217 4.29667 57.7116 4.35174 57.5464C4.40681 57.4363 4.46187 57.2711 4.46187 57.1059C4.46187 56.9406 4.40681 56.7754 4.35174 56.6653C4.29667 56.5552 4.18654 56.445 4.0764 56.39C3.96626 56.3349 3.80105 56.2798 3.63584 56.2798C3.47064 56.2798 3.36051 56.3349 3.1953 56.39C3.08517 56.445 2.97503 56.5552 2.91996 56.6653C2.86489 56.7754 2.80982 56.9406 2.80982 57.1059C2.80982 57.2711 2.86489 57.4363 2.91996 57.5464C2.97503 57.6565 3.08517 57.7667 3.1953 57.8768C3.30544 57.9319 3.47064 57.9869 3.63584 57.9869C3.80105 57.9869 3.96626 57.9319 4.0764 57.8768Z" fill="#E0DCDD"/>
<path d="M6.88452 58.4274L6.27878 57.3812H6.0585V58.4274H5.50781V55.7842H6.49905C6.71932 55.7842 6.88453 55.8392 6.99466 55.8943C7.15987 55.9494 7.27001 56.0595 7.32508 56.1697C7.38014 56.2798 7.4352 56.445 7.4352 56.5551C7.4352 56.7203 7.38014 56.8855 7.27 56.9957C7.15987 57.1609 6.99467 57.216 6.82946 57.271L7.4352 58.3173H6.88452V58.4274ZM6.0585 56.9957H6.49905C6.66426 56.9957 6.7744 56.9406 6.82946 56.8855C6.88453 56.8305 6.93959 56.7203 6.93959 56.6102C6.93959 56.5001 6.88453 56.3899 6.82946 56.3349C6.7744 56.2798 6.66426 56.2247 6.49905 56.2247H6.0585V56.9957Z" fill="#E0DCDD"/>
<path d="M11.5656 55.7842L10.8498 58.4274H10.244L9.7484 56.5551L9.25279 58.4274H8.59196L7.93115 55.7842H8.48183L8.92237 57.8217L9.47306 55.7842H10.0237L10.5744 57.8217L11.015 55.7842H11.5656Z" fill="#E0DCDD"/>
<path d="M13.6577 57.8767H12.6114L12.4462 58.3723H11.8955L12.8317 55.729H13.4374L14.3736 58.3723H13.8229L13.6577 57.8767ZM13.5476 57.4912L13.1621 56.3898L12.7766 57.4912H13.5476Z" fill="#E0DCDD"/>
<path d="M16.2461 58.4274L15.6404 57.3812H15.4201V58.4274H14.8694V55.7842H15.8606C16.0809 55.7842 16.2461 55.8392 16.3562 55.8943C16.5214 55.9494 16.6316 56.0595 16.6866 56.1697C16.7417 56.2798 16.7968 56.445 16.7968 56.5551C16.7968 56.7203 16.7417 56.8855 16.6316 56.9957C16.5214 57.1609 16.3562 57.216 16.191 57.271L16.7968 58.3173H16.2461V58.4274ZM15.4201 56.9957H15.8606C16.0258 56.9957 16.136 56.9406 16.191 56.8855C16.2461 56.8305 16.3012 56.7203 16.3012 56.6102C16.3012 56.5001 16.2461 56.3899 16.191 56.3349C16.136 56.2798 16.0258 56.2247 15.8606 56.2247H15.4201V56.9957Z" fill="#E0DCDD"/>
<path d="M19.1096 55.9494C19.3298 56.0595 19.4951 56.2247 19.6052 56.3899C19.7153 56.6102 19.7704 56.8305 19.7704 57.1058C19.7704 57.3812 19.7153 57.6014 19.6052 57.8217C19.4951 58.042 19.3298 58.1521 19.1096 58.2623C18.8893 58.3724 18.669 58.4274 18.3937 58.4274H17.4575V55.7842H18.3937C18.669 55.7842 18.8893 55.8392 19.1096 55.9494ZM18.9994 57.7116C19.1646 57.5464 19.2197 57.3261 19.2197 57.0507C19.2197 56.7754 19.1646 56.5551 18.9994 56.3899C18.8342 56.2247 18.6139 56.1697 18.3386 56.1697H17.9531V57.8768H18.3386C18.669 57.9318 18.8342 57.8768 18.9994 57.7116Z" fill="#E0DCDD"/>
<path d="M21.918 56.8306H20.321V57.2711H21.918V56.8306Z" fill="#E0DCDD"/>
<path d="M24.2858 55.7842V56.2247H23.1845V56.8855H24.0105V57.271H23.1845V58.4274H22.6338V55.7842H24.2858Z" fill="#E0DCDD"/>
<path d="M25.3325 58.2623C25.1122 58.1522 24.947 57.9869 24.8369 57.7667C24.7267 57.5464 24.6716 57.3261 24.6716 57.0508C24.6716 56.7754 24.7267 56.5552 24.8369 56.3349C24.947 56.1146 25.1122 55.9494 25.3325 55.8393C25.5527 55.7291 25.773 55.6741 25.9933 55.6741C26.2686 55.6741 26.4889 55.7291 26.6541 55.8393C26.8744 55.9494 27.0396 56.1146 27.1497 56.3349C27.2598 56.5552 27.3149 56.7754 27.3149 57.0508C27.3149 57.3261 27.2598 57.5464 27.1497 57.7667C27.0396 57.9869 26.8744 58.1522 26.6541 58.2623C26.4338 58.3724 26.2136 58.4275 25.9933 58.4275C25.773 58.4275 25.5527 58.3724 25.3325 58.2623ZM26.4338 57.8768C26.544 57.8217 26.6541 57.7116 26.7092 57.5464C26.7642 57.4363 26.8193 57.2711 26.8193 57.1059C26.8193 56.9406 26.7642 56.7754 26.7092 56.6653C26.6541 56.5552 26.544 56.445 26.4338 56.39C26.3237 56.3349 26.1585 56.2798 25.9933 56.2798C25.8281 56.2798 25.7179 56.3349 25.5527 56.39C25.4426 56.445 25.3325 56.5552 25.2774 56.6653C25.2223 56.7754 25.1673 56.9406 25.1673 57.1059C25.1673 57.2711 25.2223 57.4363 25.2774 57.5464C25.3325 57.6565 25.4426 57.7667 25.5527 57.8768C25.6629 57.9319 25.8281 57.9869 25.9933 57.9869C26.1585 57.9869 26.3237 57.9319 26.4338 57.8768Z" fill="#E0DCDD"/>
<path d="M27.9211 56.3898C28.0312 56.1695 28.1964 56.0043 28.4167 55.8942C28.637 55.7841 28.8572 55.729 29.0775 55.729C29.3528 55.729 29.6282 55.7841 29.8484 55.9493C30.0687 56.1145 30.2339 56.3348 30.289 56.555H29.6832C29.6282 56.4449 29.518 56.3348 29.4079 56.2797C29.2978 56.2246 29.1876 56.1696 29.0224 56.1696C28.8572 56.1696 28.7471 56.2246 28.6369 56.2797C28.5268 56.3348 28.4167 56.4449 28.3616 56.555C28.3065 56.6652 28.2515 56.8304 28.2515 56.9956C28.2515 57.1608 28.3065 57.326 28.3616 57.4361C28.4167 57.5463 28.5268 57.6564 28.6369 57.7665C28.7471 57.8216 28.9123 57.8767 29.0224 57.8767C29.1876 57.8767 29.2978 57.8216 29.4079 57.7665C29.518 57.7115 29.6282 57.6013 29.6832 57.4912H30.289C30.1788 57.7665 30.0687 57.9868 29.8484 58.0969C29.6282 58.2621 29.3528 58.3172 29.0775 58.3172C28.8021 58.3172 28.5819 58.2621 28.4167 58.152C28.1964 58.0419 28.0312 57.8767 27.9211 57.6564C27.8109 57.4361 27.7559 57.2158 27.7559 56.9405C27.7559 56.8304 27.8109 56.6101 27.9211 56.3898Z" fill="#E0DCDD"/>
<path d="M31.445 55.7842V57.3812C31.445 57.5464 31.5 57.7116 31.6102 57.7666C31.7203 57.8768 31.8304 57.9318 31.9957 57.9318C32.1609 57.9318 32.271 57.8768 32.3811 57.7666C32.4912 57.6565 32.5463 57.5464 32.5463 57.3812V55.7842H33.097V57.3812C33.097 57.6014 33.0419 57.7666 32.9318 57.9318C32.8216 58.097 32.7115 58.2072 32.5463 58.2623C32.3811 58.3173 32.2159 58.3724 31.9957 58.3724C31.7754 58.3724 31.6102 58.3173 31.445 58.2623C31.2798 58.2072 31.1696 58.042 31.0595 57.9318C30.9493 57.7666 30.8943 57.6014 30.8943 57.3812V55.7842H31.445Z" fill="#E0DCDD"/>
<path d="M34.0882 58.3172C33.923 58.2621 33.8129 58.152 33.7578 58.0419C33.6477 57.9317 33.6477 57.7665 33.6477 57.6013H34.1984C34.1984 57.7115 34.2534 57.8216 34.3085 57.8767C34.3636 57.9317 34.4737 57.9868 34.5838 57.9868C34.694 57.9868 34.8041 57.9317 34.8592 57.8767C34.9142 57.8216 34.9693 57.7665 34.9693 57.6564C34.9693 57.6013 34.9693 57.4912 34.9143 57.4912C34.8592 57.4361 34.8041 57.3811 34.7491 57.3811C34.694 57.326 34.5839 57.326 34.4737 57.2709C34.3085 57.2158 34.1433 57.1608 34.0332 57.1057C33.923 57.0506 33.8129 56.9956 33.7578 56.8854C33.7027 56.7753 33.6477 56.6652 33.6477 56.5C33.6477 56.3348 33.7027 56.2246 33.7578 56.1145C33.8129 56.0043 33.923 55.8942 34.0882 55.8391C34.2534 55.7841 34.3636 55.729 34.5838 55.729C34.8592 55.729 35.0795 55.7841 35.2447 55.9493C35.4099 56.0594 35.52 56.2797 35.52 56.5H34.9693C34.9693 56.3898 34.9142 56.3348 34.8592 56.2797C34.8041 56.2246 34.694 56.1696 34.5838 56.1696C34.4737 56.1696 34.4187 56.1695 34.3636 56.2246C34.3085 56.2797 34.2534 56.3348 34.2534 56.4449C34.2534 56.5 34.2534 56.555 34.3085 56.6101C34.3636 56.6652 34.4187 56.7202 34.4737 56.7202C34.5288 56.7753 34.6389 56.7753 34.7491 56.8304C34.9143 56.8854 35.0795 56.9405 35.1896 56.9956C35.2997 57.0506 35.4099 57.1057 35.465 57.2158C35.52 57.326 35.5751 57.4361 35.5751 57.6013C35.5751 57.7665 35.52 57.8767 35.465 57.9868C35.4099 58.0969 35.2997 58.2071 35.1345 58.2621C34.9693 58.3172 34.8041 58.3723 34.6389 58.3723C34.4187 58.4273 34.2534 58.3723 34.0882 58.3172Z" fill="#E0DCDD"/>
<path d="M36.6213 56.2247V56.8855H37.5575V57.271H36.6213V57.9869H37.6676V58.4274H36.1257V55.7842H37.6676V56.2247H36.6213Z" fill="#E0DCDD"/>
<path d="M39.925 55.9494C40.1453 56.0595 40.3105 56.2247 40.4206 56.3899C40.5308 56.6102 40.5858 56.8305 40.5858 57.1058C40.5858 57.3812 40.5308 57.6014 40.4206 57.8217C40.3105 58.042 40.1453 58.1521 39.925 58.2623C39.7047 58.3724 39.4845 58.4274 39.2091 58.4274H38.2729V55.7842H39.2091C39.4845 55.7842 39.7047 55.8392 39.925 55.9494ZM39.8149 57.7116C39.9801 57.5464 40.0351 57.3261 40.0351 57.0507C40.0351 56.7754 39.9801 56.5551 39.8149 56.3899C39.6496 56.2247 39.4294 56.1697 39.1541 56.1697H38.7686V57.8768H39.1541C39.4294 57.9318 39.6496 57.8768 39.8149 57.7116Z" fill="#E0DCDD"/>
<path d="M1.92842 59.5837C2.14869 59.6938 2.31391 59.859 2.42404 60.0242C2.53418 60.2445 2.58924 60.4648 2.58924 60.7401C2.58924 61.0154 2.53418 61.2357 2.42404 61.456C2.31391 61.6763 2.14869 61.7864 1.92842 61.8965C1.70814 62.0067 1.48788 62.0617 1.21253 62.0617H0.276367V59.4185H1.21253C1.48788 59.4185 1.70814 59.4735 1.92842 59.5837ZM1.81829 61.3458C1.98349 61.1806 2.03856 60.9604 2.03856 60.685C2.03856 60.4097 1.98349 60.1894 1.81829 60.0242C1.65308 59.859 1.4328 59.8039 1.15746 59.8039H0.771995V61.5111H1.15746C1.48787 61.5661 1.65308 61.5111 1.81829 61.3458Z" fill="#E0DCDD"/>
<path d="M3.6355 59.859V60.4648H4.5166V60.9053H3.6355V61.6212H4.62674V62.0067H3.13989V59.4185H4.62674V59.859H3.6355Z" fill="#E0DCDD"/>
<path d="M5.67273 61.9517C5.50753 61.8967 5.39739 61.7865 5.34232 61.6764C5.23218 61.5663 5.23218 61.401 5.23218 61.2358H5.78286C5.78286 61.346 5.83794 61.401 5.893 61.5112C5.94807 61.5663 6.05821 61.6213 6.16834 61.6213C6.27848 61.6213 6.38862 61.5663 6.44369 61.5112C6.49875 61.4561 6.55383 61.4011 6.55383 61.2909C6.55383 61.2358 6.55383 61.1257 6.49876 61.1257C6.44369 61.0706 6.38861 61.0156 6.33354 61.0156C6.27847 60.9605 6.16834 60.9605 6.0582 60.9054C5.893 60.8504 5.7278 60.7953 5.61766 60.7402C5.50753 60.6852 5.39739 60.6301 5.34232 60.52C5.28725 60.4098 5.23218 60.2997 5.23218 60.1345C5.23218 59.9693 5.28725 59.8591 5.34232 59.749C5.39739 59.6389 5.50753 59.5287 5.67273 59.4737C5.83794 59.4186 5.94807 59.3635 6.16834 59.3635C6.44369 59.3635 6.66397 59.4186 6.82917 59.5838C6.99438 59.6939 7.10451 59.9142 7.10451 60.1345H6.55383C6.55383 60.0243 6.49875 59.9693 6.44369 59.9142C6.38862 59.8591 6.27848 59.8041 6.16834 59.8041C6.05821 59.8041 6.00314 59.8041 5.94808 59.8591C5.89301 59.9142 5.83793 59.9693 5.83793 60.0794C5.83793 60.1345 5.83794 60.1895 5.893 60.2446C5.94807 60.2997 6.00313 60.3547 6.0582 60.3547C6.11327 60.3547 6.22341 60.4098 6.33354 60.4649C6.49875 60.52 6.66396 60.575 6.7741 60.6301C6.88424 60.6852 6.99437 60.7402 7.04944 60.8504C7.10451 60.9605 7.15957 61.0706 7.15957 61.2358C7.15957 61.401 7.10451 61.5112 7.04944 61.6213C6.99437 61.7315 6.88423 61.8416 6.71903 61.8967C6.55382 61.9517 6.38862 62.0068 6.22342 62.0068C6.00314 62.0619 5.83794 62.0068 5.67273 61.9517Z" fill="#E0DCDD"/>
<path d="M8.26089 59.4185H7.71021V62.0617H8.26089V59.4185Z" fill="#E0DCDD"/>
<path d="M10.739 60.1895C10.6839 60.0793 10.5738 59.9692 10.4637 59.9141C10.3535 59.8591 10.2434 59.804 10.0782 59.804C9.913 59.804 9.80286 59.8591 9.69272 59.9141C9.58259 59.9692 9.47245 60.0793 9.41738 60.1895C9.36231 60.2996 9.30726 60.4648 9.30726 60.63C9.30726 60.7952 9.36231 60.9604 9.41738 61.0706C9.47245 61.1807 9.58259 61.2908 9.69272 61.3459C9.80286 61.401 9.96807 61.456 10.1333 61.456C10.3536 61.456 10.5188 61.401 10.6289 61.2908C10.739 61.1807 10.8492 61.0155 10.9042 60.8503H10.0231V60.4648H11.4549V60.9054C11.3998 61.0706 11.3448 61.2358 11.2346 61.401C11.1245 61.5662 10.9593 61.6763 10.7941 61.7864C10.6289 61.8966 10.4086 61.9517 10.1883 61.9517C9.91299 61.9517 9.69273 61.8966 9.52753 61.7864C9.30725 61.6763 9.14205 61.5111 9.03191 61.2908C8.92178 61.0706 8.8667 60.8503 8.8667 60.5749C8.8667 60.2996 8.92178 60.0793 9.03191 59.8591C9.14205 59.6388 9.30725 59.4736 9.52753 59.3634C9.7478 59.2533 9.96806 59.1982 10.1883 59.1982C10.4637 59.1982 10.739 59.2533 10.9593 59.4185C11.1796 59.5837 11.3448 59.7489 11.3998 60.0243H10.739V60.1895Z" fill="#E0DCDD"/>
<path d="M14.1534 62.0067H13.6578L12.4463 60.2445V62.0067H11.9507V59.4185H12.4463L13.6578 61.2357V59.4185H14.1534V62.0067Z" fill="#E0DCDD"/>
<path d="M16.3012 61.9517C16.1359 61.8967 16.0258 61.7865 15.9707 61.6764C15.8606 61.5663 15.8606 61.401 15.8606 61.2358H16.4113C16.4113 61.346 16.4663 61.401 16.5214 61.5112C16.5765 61.5663 16.6866 61.6213 16.7967 61.6213C16.9069 61.6213 17.017 61.5663 17.0721 61.5112C17.1272 61.4561 17.1822 61.4011 17.1822 61.2909C17.1822 61.2358 17.1822 61.1257 17.1272 61.1257C17.0721 61.0706 17.017 61.0156 16.9619 61.0156C16.9069 60.9605 16.7967 60.9605 16.6866 60.9054C16.5214 60.8504 16.3562 60.7953 16.2461 60.7402C16.1359 60.6852 16.0258 60.6301 15.9707 60.52C15.9157 60.4098 15.8606 60.2997 15.8606 60.1345C15.8606 59.9693 15.9157 59.8591 15.9707 59.749C16.0258 59.6389 16.1359 59.5287 16.3012 59.4737C16.4664 59.4186 16.5765 59.3635 16.7967 59.3635C17.0721 59.3635 17.2924 59.4186 17.4576 59.5838C17.6228 59.6939 17.7329 59.9142 17.7329 60.1345H17.1822C17.1822 60.0243 17.1272 59.9693 17.0721 59.9142C17.017 59.8591 16.9069 59.8041 16.7967 59.8041C16.6866 59.8041 16.6316 59.8041 16.5765 59.8591C16.5214 59.9142 16.4663 59.9693 16.4663 60.0794C16.4663 60.1345 16.4663 60.1895 16.5214 60.2446C16.5765 60.2997 16.6315 60.3547 16.6866 60.3547C16.7417 60.4098 16.8518 60.4098 16.9619 60.4649C17.1271 60.52 17.2924 60.575 17.4025 60.6301C17.5127 60.6852 17.6228 60.7402 17.6779 60.8504C17.7329 60.9605 17.788 61.0706 17.788 61.2358C17.788 61.401 17.7329 61.5112 17.6779 61.6213C17.6228 61.7315 17.5126 61.8416 17.3474 61.8967C17.1822 61.9517 17.017 62.0068 16.8518 62.0068C16.6316 62.0619 16.4664 62.0068 16.3012 61.9517Z" fill="#E0DCDD"/>
<path d="M18.8888 61.8966C18.6685 61.7864 18.5034 61.6212 18.3932 61.4009C18.2831 61.1807 18.228 60.9604 18.228 60.6851C18.228 60.4097 18.2831 60.1894 18.3932 59.9692C18.5034 59.7489 18.6685 59.5837 18.8888 59.4736C19.1091 59.3634 19.3294 59.3083 19.5496 59.3083C19.825 59.3083 20.0453 59.3634 20.2105 59.4736C20.4307 59.5837 20.596 59.7489 20.7061 59.9692C20.8162 60.1894 20.8713 60.4097 20.8713 60.6851C20.8713 60.9604 20.8162 61.1807 20.7061 61.4009C20.596 61.6212 20.4307 61.7864 20.2105 61.8966C19.9902 62.0067 19.7699 62.0618 19.5496 62.0618C19.3294 62.0618 19.054 62.0067 18.8888 61.8966ZM19.9351 61.456C20.0453 61.4009 20.1554 61.2908 20.2105 61.1256C20.2655 61.0155 20.3206 60.8503 20.3206 60.6851C20.3206 60.5199 20.2655 60.3546 20.2105 60.2445C20.1554 60.1344 20.0453 60.0242 19.9351 59.9692C19.825 59.9141 19.6598 59.859 19.4946 59.859C19.3294 59.859 19.2193 59.9141 19.0541 59.9692C18.9439 60.0242 18.8338 60.1344 18.7787 60.2445C18.7236 60.3546 18.6686 60.5199 18.6686 60.6851C18.6686 60.8503 18.7236 61.0155 18.7787 61.1256C18.8338 61.2357 18.9439 61.3459 19.0541 61.456C19.1642 61.5111 19.3294 61.5662 19.4946 61.5662C19.7149 61.5662 19.825 61.5661 19.9351 61.456Z" fill="#E0DCDD"/>
<path d="M21.973 61.6212H22.7991V62.0067H21.4224V59.4185H21.973V61.6212Z" fill="#E0DCDD"/>
<path d="M23.7907 59.4185V61.0154C23.7907 61.1806 23.8457 61.3458 23.9559 61.4009C24.066 61.5111 24.1762 61.5661 24.3414 61.5661C24.5066 61.5661 24.6167 61.5111 24.7268 61.4009C24.837 61.2908 24.892 61.1806 24.892 61.0154V59.4185H25.4427V61.0154C25.4427 61.2357 25.3877 61.4009 25.2775 61.5661C25.1674 61.7313 25.0572 61.8415 24.892 61.8965C24.7268 61.9516 24.5616 62.0067 24.3414 62.0067C24.1211 62.0067 23.9559 61.9516 23.7907 61.8965C23.6255 61.8415 23.5153 61.6763 23.4052 61.5661C23.2951 61.4009 23.24 61.2357 23.24 61.0154V59.4185H23.7907Z" fill="#E0DCDD"/>
<path d="M27.8651 59.4185V59.859H27.1492V62.0067H26.5985V59.859H25.9377V59.4185H27.8651Z" fill="#E0DCDD"/>
<path d="M28.9118 59.4185H28.3611V62.0617H28.9118V59.4185Z" fill="#E0DCDD"/>
<path d="M30.1232 61.8966C29.903 61.7864 29.7377 61.6212 29.6276 61.4009C29.5175 61.1807 29.4624 60.9604 29.4624 60.6851C29.4624 60.4097 29.5175 60.1894 29.6276 59.9692C29.7377 59.7489 29.903 59.5837 30.1232 59.4736C30.3435 59.3634 30.5638 59.3083 30.7841 59.3083C31.0043 59.3083 31.2797 59.3634 31.4449 59.4736C31.6652 59.5837 31.8303 59.7489 31.9405 59.9692C32.0506 60.1894 32.1057 60.4097 32.1057 60.6851C32.1057 60.9604 32.0506 61.1807 31.9405 61.4009C31.8303 61.6212 31.6652 61.7864 31.4449 61.8966C31.2246 62.0067 31.0043 62.0618 30.7841 62.0618C30.5638 62.0618 30.3435 62.0067 30.1232 61.8966ZM31.2246 61.456C31.3347 61.4009 31.4449 61.2908 31.4999 61.1256C31.555 61.0155 31.6101 60.8503 31.6101 60.6851C31.6101 60.5199 31.555 60.3546 31.4999 60.2445C31.4449 60.1344 31.3347 60.0242 31.2246 59.9692C31.1145 59.9141 30.9493 59.859 30.7841 59.859C30.6188 59.859 30.5087 59.9141 30.3435 59.9692C30.2334 60.0242 30.1232 60.1344 30.0682 60.2445C30.0131 60.3546 29.958 60.5199 29.958 60.6851C29.958 60.8503 30.0131 61.0155 30.0682 61.1256C30.1232 61.2357 30.2334 61.3459 30.3435 61.456C30.4537 61.5111 30.6188 61.5662 30.7841 61.5662C30.9493 61.5662 31.1145 61.5661 31.2246 61.456Z" fill="#E0DCDD"/>
<path d="M34.9143 62.0067H34.3636L33.2072 60.2445V62.0067H32.6565V59.4185H33.2072L34.3636 61.2357V59.4185H34.9143V62.0067Z" fill="#E0DCDD"/>
<path d="M36.0152 61.9517C35.85 61.8967 35.7399 61.7865 35.6848 61.6764C35.5747 61.5663 35.5747 61.401 35.5747 61.2358H36.1254C36.1254 61.346 36.1804 61.401 36.2355 61.5112C36.2906 61.5663 36.4007 61.6213 36.5108 61.6213C36.621 61.6213 36.7311 61.5663 36.7862 61.5112C36.8412 61.4561 36.8963 61.4011 36.8963 61.2909C36.8963 61.2358 36.8963 61.1257 36.8413 61.1257C36.7862 61.0706 36.7311 61.0156 36.6761 61.0156C36.621 60.9605 36.5109 60.9605 36.4007 60.9054C36.2355 60.8504 36.0703 60.7953 35.9602 60.7402C35.85 60.6852 35.7399 60.6301 35.6848 60.52C35.6297 60.4098 35.5747 60.2997 35.5747 60.1345C35.5747 59.9693 35.6297 59.8591 35.6848 59.749C35.7399 59.6389 35.85 59.5287 36.0152 59.4737C36.1805 59.4186 36.2906 59.3635 36.5108 59.3635C36.7862 59.3635 37.0065 59.4186 37.1717 59.5838C37.3369 59.6939 37.447 59.9142 37.447 60.1345H36.8963C36.8963 60.0243 36.8412 59.9693 36.7862 59.9142C36.7311 59.8591 36.621 59.8041 36.5108 59.8041C36.4007 59.8041 36.3457 59.8041 36.2906 59.8591C36.2355 59.9142 36.1804 59.9693 36.1804 60.0794C36.1804 60.1345 36.1804 60.1895 36.2355 60.2446C36.2906 60.2997 36.3457 60.3547 36.4007 60.3547C36.4558 60.4098 36.5659 60.4098 36.6761 60.4649C36.8413 60.52 37.0065 60.575 37.1166 60.6301C37.2267 60.6852 37.3369 60.7402 37.392 60.8504C37.447 60.9605 37.5021 61.0706 37.5021 61.2358C37.5021 61.401 37.447 61.5112 37.392 61.6213C37.3369 61.7315 37.2267 61.8416 37.0615 61.8967C36.8963 61.9517 36.7311 62.0068 36.5659 62.0068C36.2906 62.0619 36.1254 62.0068 36.0152 61.9517Z" fill="#E0DCDD"/>
</svg>
