<svg width="21" height="18" viewBox="0 0 21 18" fill="none" xmlns="http://www.w3.org/2000/svg">
<path d="M21 9.44827C21 8.17241 19.934 7.17241 18.6548 7.17241H11.868C10.5533 7.17241 9.52284 8.20689 9.52284 9.44827V2.27586C9.52284 0.999997 8.45686 0 7.17767 0H6.6802V8.13793C6.6802 9.41379 7.74621 10.4138 9.02539 10.4138H0V10.8965C0 12.1724 1.06598 13.1724 2.34517 13.1724H7.14213C8.45685 13.1724 9.48732 12.1379 9.48732 10.8965V18H9.98477C11.2995 18 12.33 16.9655 12.33 15.7241V12.2414C12.33 10.9655 11.264 9.96552 9.98477 9.96552H21V9.44827Z" fill="#00AD8D"/>
</svg>
