<svg width="187" height="180" viewBox="0 0 187 180" fill="none" xmlns="http://www.w3.org/2000/svg">
<circle cx="62.9976" cy="176.5" r="3.5" fill="#00AD8D"/>
<circle cx="122.498" cy="171" r="1" fill="#00AD8D"/>
<circle cx="10.4976" cy="133" r="5" fill="#00AD8D"/>
<circle cx="178.998" cy="27.5" r="7.5" fill="#00AD8D"/>
<circle cx="96.002" cy="90.5" r="70.5" fill="#00AD8D"/>
<circle cx="166.002" cy="160.5" r="2.5" fill="#00AD8D"/>
<circle cx="171.002" cy="110.5" r="2.5" fill="#00AD8D"/>
<circle cx="1.50195" cy="75" r="1" fill="#00AD8D"/>
<g clip-path="url(#clip0_334_4599)">
<path d="M93.9993 66.9167C80.4293 66.9167 69.416 77.9301 69.416 91.5001C69.416 105.07 80.4293 116.083 93.9993 116.083C107.569 116.083 118.583 105.07 118.583 91.5001C118.583 77.9301 107.569 66.9167 93.9993 66.9167ZM87.3373 102.046L78.5118 93.2209C77.5531 92.2622 77.5531 90.7134 78.5118 89.7547C79.4706 88.7959 81.0193 88.7959 81.9781 89.7547L89.0827 96.8347L105.996 79.9213C106.955 78.9626 108.504 78.9626 109.462 79.9213C110.421 80.8801 110.421 82.4288 109.462 83.3876L90.8035 102.046C89.8693 103.005 88.296 103.005 87.3373 102.046Z" fill="white"/>
</g>
<circle cx="107" cy="4.5" r="2.5" fill="#00AD8D"/>
<circle cx="20.5" cy="10" r="10" fill="#00AD8D"/>
<defs>
<clipPath id="clip0_334_4599">
<rect width="59" height="59" fill="white" transform="translate(64.5 62)"/>
</clipPath>
</defs>
</svg>
